#N canvas 590 -18 1349 728 12;
#X msg 917 -508 disconnect;
#X obj 909 -375 netsend 1;
#X msg 909 -534 connect localhost 3001;
#X floatatom 909 -348 0 0 0 0 - - -;
#X obj 1091 -431 pack 0 0 0 0;
#X floatatom 1203 -503 5 0 0 0 - - -;
#X floatatom 1150 -502 5 0 0 0 - - -;
#X floatatom 1103 -501 5 0 0 0 - - -;
#X floatatom 1056 -502 5 0 0 0 - - -;
#X obj 1046 -453 bng 15 250 50 0 empty empty empty 0 -6 0 8 -262144
-1 -1;
#X msg 926 -400 send \$1 \$2 \$3 \$4;
#X obj 243 -514 netreceive 4001 1;
#X floatatom 414 -299 5 0 0 0 - - -;
#X floatatom 287 -298 5 0 0 0 - - -;
#X floatatom 537 -298 5 0 0 0 - - -;
#X floatatom 286 -335 5 0 0 0 - - -;
#X obj 243 -478 unpack 0 0 0 0 0 0 0 0 0 0 0 0 0 0;
#X floatatom 536 -331 5 0 0 0 - - -;
#X floatatom 411 -334 5 0 0 0 - - -;
#X floatatom 156 -334 5 0 0 0 - - -;
#X floatatom 158 -300 5 0 0 0 - - -;
#X floatatom 350 -293 5 0 0 0 - - -;
#X floatatom 469 -252 5 0 0 0 - - -;
#X floatatom 469 -286 5 0 0 0 - - -;
#X floatatom 352 -256 5 0 0 0 - - -;
#X floatatom 229 -288 5 0 0 0 - - -;
#X floatatom 226 -254 5 0 0 0 - - -;
#N canvas 611 208 986 695 rand_fm_drone 0;
#N canvas 29 104 723 642 rnd_fm_osc1 0;
#X obj 96 55 inlet;
#X obj 296 4 inlet;
#X obj 184 344 line~;
#X obj 168 366 *~;
#X obj 170 426 *~;
#X obj 168 212 +~;
#X obj 184 321 pack 0 1700;
#X obj 162 539 *~;
#X obj 185 491 random 8;
#N canvas 99 258 450 300 am1 0;
#X obj 91 228 outlet~;
#X obj 92 194 osc~;
#X obj 99 165 line;
#X obj 99 142 pack 0 850;
#X obj 99 99 inlet;
#X obj 209 101 inlet;
#X text 101 86 freq;
#X text 213 84 clocklen/2;
#X msg 208 148 1;
#X connect 1 0 0 0;
#X connect 2 0 1 0;
#X connect 3 0 2 0;
#X connect 4 0 3 0;
#X connect 5 0 3 1;
#X connect 5 0 8 0;
#X connect 8 0 1 1;
#X restore 183 517 pd am1;
#X obj 156 49 inlet;
#X text 95 37 freq;
#X text 161 32 modfreq;
#X obj 162 566 outlet~;
#X obj 224 46 inlet;
#X text 224 32 clocklen;
#X obj 351 227 / 2;
#X obj 188 293 random 2;
#N canvas 395 83 876 445 vol_level_mod 0;
#X obj 61 307 outlet;
#X msg 65 261 \$1 400;
#X obj 65 284 line;
#X obj 67 237 clip 0.125 0.3;
#X obj 74 173 metro 300;
#X obj 73 194 random 1000;
#X obj 71 213 / 1000;
#X obj 79 144 inlet;
#X obj 170 106 r \$0rfmdroneseed;
#X msg 171 150 seed \$1;
#X obj 171 127 + 3;
#X connect 1 0 2 0;
#X connect 2 0 0 0;
#X connect 3 0 1 0;
#X connect 4 0 5 0;
#X connect 5 0 6 0;
#X connect 6 0 3 0;
#X connect 7 0 4 0;
#X connect 8 0 10 0;
#X connect 9 0 5 0;
#X connect 10 0 9 0;
#X restore 234 390 pd vol_level_mod;
#N canvas 600 90 680 300 freqmod1 0;
#X obj 82 219 outlet~;
#X obj 70 78 osc~;
#X obj 78 187 *~;
#X obj 76 136 *~;
#X obj 213 150 noise~;
#X obj 253 3 inlet;
#X obj 133 76 inlet;
#X msg 225 54 bang;
#X obj 320 43 int;
#X obj 355 37 + 1;
#X obj 349 59 mod 2;
#X obj 76 162 +~;
#X obj 67 48 inlet;
#X text 72 32 freq;
#X text 125 59 fm depth;
#X text 254 -11 metro bang;
#X obj 279 90 tabosc4~ \$0fmnoise1;
#X obj 272 118 table \$0fmnoise1 259;
#X obj 191 190 tabwrite~ \$0fmnoise1;
#X connect 1 0 3 0;
#X connect 2 0 0 0;
#X connect 3 0 11 0;
#X connect 4 0 18 0;
#X connect 5 0 7 0;
#X connect 5 0 8 0;
#X connect 6 0 3 1;
#X connect 6 0 2 1;
#X connect 7 0 18 0;
#X connect 8 0 9 0;
#X connect 9 0 10 0;
#X connect 10 0 8 1;
#X connect 10 0 16 0;
#X connect 11 0 2 0;
#X connect 12 0 1 0;
#X connect 16 0 11 1;
#X restore 197 163 pd freqmod1;
#N canvas 11 86 450 300 fmdepthmod 0;
#X obj 170 185 line;
#X obj 176 163 pack 0 10000;
#X obj 176 117 metro 10000;
#X obj 176 139 random 50;
#X obj 159 228 outlet;
#X obj 179 96 inlet;
#X obj 269 33 r \$0rfmdroneseed;
#X obj 270 54 + 1;
#X msg 270 77 seed \$1;
#X connect 0 0 4 0;
#X connect 1 0 0 0;
#X connect 2 0 3 0;
#X connect 3 0 1 0;
#X connect 5 0 2 0;
#X connect 6 0 7 0;
#X connect 7 0 8 0;
#X connect 8 0 3 0;
#X restore 294 112 pd fmdepthmod;
#X obj 418 43 loadbang;
#X msg 403 70 bang;
#X text 286 -12 metro bang;
#X obj 167 236 osc~;
#X obj 122 138 mtof;
#X obj 239 136 *;
#X obj 366 9 inlet;
#X obj 274 186 r \$0rfmdroneseed;
#X msg 275 230 seed \$1;
#X obj 275 207 + 2;
#X obj 274 415 r \$0rfmdroneseed;
#X msg 275 459 seed \$1;
#X obj 275 436 + 4;
#X connect 0 0 25 0;
#X connect 1 0 8 0;
#X connect 1 0 17 0;
#X connect 1 0 19 2;
#X connect 2 0 3 1;
#X connect 3 0 4 0;
#X connect 4 0 7 0;
#X connect 5 0 24 0;
#X connect 6 0 2 0;
#X connect 7 0 13 0;
#X connect 8 0 9 0;
#X connect 9 0 7 1;
#X connect 10 0 19 0;
#X connect 14 0 16 0;
#X connect 16 0 6 1;
#X connect 16 0 9 1;
#X connect 17 0 6 0;
#X connect 18 0 4 1;
#X connect 19 0 5 1;
#X connect 20 0 26 0;
#X connect 21 0 22 0;
#X connect 22 0 20 0;
#X connect 22 0 18 0;
#X connect 24 0 3 0;
#X connect 25 0 5 0;
#X connect 26 0 19 1;
#X connect 27 0 26 1;
#X connect 28 0 30 0;
#X connect 29 0 17 0;
#X connect 30 0 29 0;
#X connect 31 0 33 0;
#X connect 32 0 8 0;
#X connect 33 0 32 0;
#X restore 3 405 pd rnd_fm_osc1;
#X obj 142 143 nbx 3 14 -36 36 0 1 empty empty empty 0 -8 0 10 -262144
-1 -1 3 256;
#X obj 182 143 nbx 3 14 -36 36 0 1 empty empty empty 0 -8 0 10 -262144
-1 -1 5 256;
#X obj 222 143 nbx 3 14 -36 36 0 1 empty empty empty 0 -8 0 10 -262144
-1 -1 6 256;
#X obj 120 382 +;
#X obj 222 394 +;
#X obj 298 399 +;
#X obj 305 363 t b f;
#X obj 233 346 t b f;
#X obj 145 337 t b f;
#N canvas 0 0 450 300 pan1 0;
#X obj 120 15 inlet;
#X obj 297 51 inlet~;
#X obj 256 225 outlet~;
#X obj 336 218 outlet~;
#X obj 251 149 *~;
#X obj 323 154 *~;
#X obj 276 122 + 1;
#X obj 335 113 * -1;
#X obj 208 75 * -1;
#X obj 160 42 clip 0 1;
#X connect 0 0 9 0;
#X connect 1 0 4 0;
#X connect 1 0 5 1;
#X connect 4 0 2 0;
#X connect 5 0 3 0;
#X connect 6 0 4 1;
#X connect 7 0 5 0;
#X connect 8 0 6 0;
#X connect 8 0 7 0;
#X connect 9 0 8 0;
#X restore 16 578 pd pan1;
#N canvas 0 0 450 300 pan1 0;
#X obj 120 15 inlet;
#X obj 297 51 inlet~;
#X obj 256 225 outlet~;
#X obj 336 218 outlet~;
#X obj 251 149 *~;
#X obj 323 154 *~;
#X obj 276 122 + 1;
#X obj 335 113 * -1;
#X obj 208 75 * -1;
#X obj 160 42 clip 0 1;
#X connect 0 0 9 0;
#X connect 1 0 4 0;
#X connect 1 0 5 1;
#X connect 4 0 2 0;
#X connect 5 0 3 0;
#X connect 6 0 4 1;
#X connect 7 0 5 0;
#X connect 8 0 6 0;
#X connect 8 0 7 0;
#X connect 9 0 8 0;
#X restore 76 579 pd pan1;
#N canvas 0 0 450 300 pan1 0;
#X obj 120 15 inlet;
#X obj 297 51 inlet~;
#X obj 256 225 outlet~;
#X obj 336 218 outlet~;
#X obj 251 149 *~;
#X obj 323 154 *~;
#X obj 276 122 + 1;
#X obj 335 113 * -1;
#X obj 208 75 * -1;
#X obj 160 42 clip 0 1;
#X connect 0 0 9 0;
#X connect 1 0 4 0;
#X connect 1 0 5 1;
#X connect 4 0 2 0;
#X connect 5 0 3 0;
#X connect 6 0 4 1;
#X connect 7 0 5 0;
#X connect 8 0 6 0;
#X connect 8 0 7 0;
#X connect 9 0 8 0;
#X restore 141 579 pd pan1;
#N canvas 0 0 450 300 pan1 0;
#X obj 120 15 inlet;
#X obj 297 51 inlet~;
#X obj 256 225 outlet~;
#X obj 336 218 outlet~;
#X obj 251 149 *~;
#X obj 323 154 *~;
#X obj 276 122 + 1;
#X obj 335 113 * -1;
#X obj 208 75 * -1;
#X obj 160 42 clip 0 1;
#X connect 0 0 9 0;
#X connect 1 0 4 0;
#X connect 1 0 5 1;
#X connect 4 0 2 0;
#X connect 5 0 3 0;
#X connect 6 0 4 1;
#X connect 7 0 5 0;
#X connect 8 0 6 0;
#X connect 8 0 7 0;
#X connect 9 0 8 0;
#X restore 206 579 pd pan1;
#X obj 275 124 nbx 6 14 1 1e+037 0 1 empty empty clocklen -50 8 0 10
-262144 -1 -1 10000 256;
#X obj 94 717 outlet~;
#X obj 236 728 outlet~;
#X obj 262 143 nbx 3 14 -36 36 0 1 empty empty empty 0 -8 0 10 -262144
-1 -1 10 256;
#X obj 420 409 +;
#X obj 418 372 t b f;
#N canvas 0 0 450 300 pan1 0;
#X obj 120 15 inlet;
#X obj 297 51 inlet~;
#X obj 256 225 outlet~;
#X obj 336 218 outlet~;
#X obj 251 149 *~;
#X obj 323 154 *~;
#X obj 276 122 + 1;
#X obj 335 113 * -1;
#X obj 208 75 * -1;
#X obj 160 42 clip 0 1;
#X connect 0 0 9 0;
#X connect 1 0 4 0;
#X connect 1 0 5 1;
#X connect 4 0 2 0;
#X connect 5 0 3 0;
#X connect 6 0 4 1;
#X connect 7 0 5 0;
#X connect 8 0 6 0;
#X connect 8 0 7 0;
#X connect 9 0 8 0;
#X restore 274 575 pd pan1;
#X obj 35 22 inlet;
#X obj 10 190 +;
#X obj 102 143 nbx 3 14 0 127 0 1 empty empty empty 0 -8 0 10 -262144
-1 -1 62 256;
#X obj 34 45 t b f;
#X text 77 24 tp;
#X obj 63 207 mtof;
#X obj 127 124 nbx 3 14 0 127 0 1 empty empty modp -25 8 0 10 -262144
-1 -1 69 256;
#X obj 61 183 +;
#X obj 292 5 loadbang;
#X msg -87 112 bang;
#X obj 105 161 hsl 32 8 0 1 0 1 empty empty empty -2 -8 0 10 -262144
-1 -1 500 1;
#X obj 145 161 hsl 32 8 0 1 0 1 empty empty empty -2 -8 0 10 -262144
-1 -1 2900 1;
#X obj 185 161 hsl 32 8 0 1 0 1 empty empty empty -2 -8 0 10 -262144
-1 -1 300 1;
#X obj 225 161 hsl 32 8 0 1 0 1 empty empty empty -2 -8 0 10 -262144
-1 -1 2600 1;
#X obj 265 161 hsl 32 8 0 1 0 1 empty empty empty -2 -8 0 10 -262144
-1 -1 700 1;
#X obj 305 161 hsl 32 8 0 1 0 1 empty empty empty -2 -8 0 10 -262144
-1 -1 200 1;
#X obj 345 161 hsl 32 8 0 1 0 1 empty empty empty -2 -8 0 10 -262144
-1 -1 2700 1;
#X obj 302 143 nbx 3 14 -36 36 0 1 empty empty empty 0 -8 0 10 -262144
-1 -1 -11 256;
#X obj 533 417 +;
#X obj 535 383 t b f;
#X obj 342 143 nbx 3 14 -36 36 0 1 empty empty empty 0 -8 0 10 -262144
-1 -1 -9 256;
#X obj 663 420 +;
#X obj 667 389 t b f;
#N canvas 0 0 450 300 pan1 0;
#X obj 120 15 inlet;
#X obj 297 51 inlet~;
#X obj 256 225 outlet~;
#X obj 336 218 outlet~;
#X obj 251 149 *~;
#X obj 323 154 *~;
#X obj 276 122 + 1;
#X obj 335 113 * -1;
#X obj 208 75 * -1;
#X obj 160 42 clip 0 1;
#X connect 0 0 9 0;
#X connect 1 0 4 0;
#X connect 1 0 5 1;
#X connect 4 0 2 0;
#X connect 5 0 3 0;
#X connect 6 0 4 1;
#X connect 7 0 5 0;
#X connect 8 0 6 0;
#X connect 8 0 7 0;
#X connect 9 0 8 0;
#X restore 351 573 pd pan1;
#N canvas 0 0 450 300 pan1 0;
#X obj 120 15 inlet;
#X obj 297 51 inlet~;
#X obj 256 225 outlet~;
#X obj 336 218 outlet~;
#X obj 251 149 *~;
#X obj 323 154 *~;
#X obj 276 122 + 1;
#X obj 335 113 * -1;
#X obj 208 75 * -1;
#X obj 160 42 clip 0 1;
#X connect 0 0 9 0;
#X connect 1 0 4 0;
#X connect 1 0 5 1;
#X connect 4 0 2 0;
#X connect 5 0 3 0;
#X connect 6 0 4 1;
#X connect 7 0 5 0;
#X connect 8 0 6 0;
#X connect 8 0 7 0;
#X connect 9 0 8 0;
#X restore 418 574 pd pan1;
#X obj -58 155 t b f;
#X obj 383 115 vsl 8 48 0 1 0 1 empty empty empty 0 -9 0 10 -262144
-1 -1 4600 1;
#X obj 681 252 t f f;
#X obj 685 284 *;
#X obj 93 688 *~;
#X obj 238 701 *~;
#N canvas 23 98 723 642 rnd_fm_osc2 0;
#X obj 96 55 inlet;
#X obj 296 4 inlet;
#X obj 184 344 line~;
#X obj 168 366 *~;
#X obj 170 426 *~;
#X obj 165 202 +~;
#X obj 184 321 pack 0 1700;
#X obj 162 539 *~;
#X obj 185 491 random 8;
#N canvas 99 258 450 300 am1 0;
#X obj 91 228 outlet~;
#X obj 92 194 osc~;
#X obj 99 165 line;
#X obj 99 142 pack 0 850;
#X obj 99 99 inlet;
#X obj 209 101 inlet;
#X text 101 86 freq;
#X text 213 84 clocklen/2;
#X msg 208 148 1;
#X connect 1 0 0 0;
#X connect 2 0 1 0;
#X connect 3 0 2 0;
#X connect 4 0 3 0;
#X connect 5 0 3 1;
#X connect 5 0 8 0;
#X connect 8 0 1 1;
#X restore 183 517 pd am1;
#X obj 156 49 inlet;
#X text 95 37 freq;
#X text 161 32 modfreq;
#X obj 162 566 outlet~;
#X obj 224 46 inlet;
#X text 224 32 clocklen;
#X obj 351 227 / 2;
#X obj 188 293 random 2;
#N canvas 395 83 876 445 vol_level_mod 0;
#X obj 61 307 outlet;
#X msg 65 261 \$1 400;
#X obj 65 284 line;
#X obj 67 237 clip 0.125 0.3;
#X obj 74 173 metro 300;
#X obj 73 194 random 1000;
#X obj 71 213 / 1000;
#X obj 79 144 inlet;
#X obj 170 106 r \$0rfmdroneseed;
#X msg 171 150 seed \$1;
#X obj 170 129 + 9;
#X connect 1 0 2 0;
#X connect 2 0 0 0;
#X connect 3 0 1 0;
#X connect 4 0 5 0;
#X connect 5 0 6 0;
#X connect 6 0 3 0;
#X connect 7 0 4 0;
#X connect 8 0 10 0;
#X connect 9 0 5 0;
#X connect 10 0 9 0;
#X restore 234 390 pd vol_level_mod;
#N canvas 595 85 680 300 freqmod1 0;
#X obj 76 219 outlet~;
#X obj 70 78 osc~;
#X obj 78 187 *~;
#X obj 76 136 *~;
#X obj 219 130 noise~;
#X obj 253 3 inlet;
#X obj 133 76 inlet;
#X msg 225 54 bang;
#X obj 320 43 int;
#X obj 355 37 + 1;
#X obj 349 59 mod 2;
#X obj 76 162 +~;
#X obj 67 48 inlet;
#X text 72 32 freq;
#X text 125 59 fm depth;
#X text 254 -11 metro bang;
#X obj 279 91 tabosc4~ \$0fmnoise2;
#X obj 272 118 table \$0fmnoise2 259;
#X obj 191 191 tabwrite~ \$0fmnoise2;
#X connect 1 0 3 0;
#X connect 2 0 0 0;
#X connect 3 0 11 0;
#X connect 4 0 18 0;
#X connect 5 0 7 0;
#X connect 5 0 8 0;
#X connect 6 0 3 1;
#X connect 6 0 2 1;
#X connect 7 0 18 0;
#X connect 8 0 9 0;
#X connect 9 0 10 0;
#X connect 10 0 8 1;
#X connect 10 0 16 0;
#X connect 11 0 2 0;
#X connect 12 0 1 0;
#X connect 16 0 11 1;
#X restore 185 168 pd freqmod1;
#N canvas 8 83 450 300 fmdepthmod 0;
#X obj 170 185 line;
#X obj 176 163 pack 0 10000;
#X obj 176 117 metro 10000;
#X obj 176 139 random 50;
#X obj 159 228 outlet;
#X obj 179 96 inlet;
#X obj 269 33 r \$0rfmdroneseed;
#X msg 270 77 seed \$1;
#X obj 270 54 + 6;
#X connect 0 0 4 0;
#X connect 1 0 0 0;
#X connect 2 0 3 0;
#X connect 3 0 1 0;
#X connect 5 0 2 0;
#X connect 6 0 8 0;
#X connect 7 0 3 0;
#X connect 8 0 7 0;
#X restore 294 112 pd fmdepthmod;
#X obj 418 43 loadbang;
#X msg 403 70 bang;
#X text 286 -12 metro bang;
#X obj 167 236 osc~;
#X obj 108 118 mtof;
#X obj 239 136 *;
#X obj 366 9 inlet;
#X obj 274 186 r \$0rfmdroneseed;
#X msg 275 230 seed \$1;
#X obj 274 415 r \$0rfmdroneseed;
#X msg 275 459 seed \$1;
#X obj 275 207 + 8;
#X obj 276 436 + 10;
#X connect 0 0 25 0;
#X connect 1 0 8 0;
#X connect 1 0 17 0;
#X connect 1 0 19 2;
#X connect 2 0 3 1;
#X connect 3 0 4 0;
#X connect 4 0 7 0;
#X connect 5 0 24 0;
#X connect 6 0 2 0;
#X connect 7 0 13 0;
#X connect 8 0 9 0;
#X connect 9 0 7 1;
#X connect 10 0 19 0;
#X connect 14 0 16 0;
#X connect 16 0 6 1;
#X connect 16 0 9 1;
#X connect 17 0 6 0;
#X connect 18 0 4 1;
#X connect 19 0 5 1;
#X connect 20 0 26 0;
#X connect 21 0 22 0;
#X connect 22 0 20 0;
#X connect 22 0 18 0;
#X connect 24 0 3 0;
#X connect 25 0 5 0;
#X connect 26 0 19 1;
#X connect 27 0 26 1;
#X connect 28 0 32 0;
#X connect 29 0 17 0;
#X connect 30 0 33 0;
#X connect 31 0 8 0;
#X connect 32 0 29 0;
#X connect 33 0 31 0;
#X restore 115 423 pd rnd_fm_osc2;
#N canvas 25 100 723 642 rnd_fm_osc3 0;
#X obj 96 55 inlet;
#X obj 296 4 inlet;
#X obj 184 344 line~;
#X obj 168 366 *~;
#X obj 170 426 *~;
#X obj 165 202 +~;
#X obj 184 321 pack 0 1700;
#X obj 162 539 *~;
#X obj 185 491 random 8;
#N canvas 100 259 450 300 am1 0;
#X obj 91 228 outlet~;
#X obj 92 194 osc~;
#X obj 99 165 line;
#X obj 99 142 pack 0 850;
#X obj 99 99 inlet;
#X obj 209 101 inlet;
#X text 101 86 freq;
#X text 213 84 clocklen/2;
#X msg 208 148 1;
#X connect 1 0 0 0;
#X connect 2 0 1 0;
#X connect 3 0 2 0;
#X connect 4 0 3 0;
#X connect 5 0 3 1;
#X connect 5 0 8 0;
#X connect 8 0 1 1;
#X restore 183 517 pd am1;
#X obj 156 49 inlet;
#X text 95 37 freq;
#X text 161 32 modfreq;
#X obj 162 566 outlet~;
#X obj 224 46 inlet;
#X text 224 32 clocklen;
#X obj 351 227 / 2;
#X obj 188 293 random 2;
#N canvas 395 83 876 445 vol_level_mod 0;
#X obj 61 307 outlet;
#X msg 65 261 \$1 400;
#X obj 65 284 line;
#X obj 67 237 clip 0.125 0.3;
#X obj 74 173 metro 300;
#X obj 73 194 random 1000;
#X obj 71 213 / 1000;
#X obj 79 144 inlet;
#X obj 170 106 r \$0rfmdroneseed;
#X msg 171 150 seed \$1;
#X obj 170 129 + 15;
#X connect 1 0 2 0;
#X connect 2 0 0 0;
#X connect 3 0 1 0;
#X connect 4 0 5 0;
#X connect 5 0 6 0;
#X connect 6 0 3 0;
#X connect 7 0 4 0;
#X connect 8 0 10 0;
#X connect 9 0 5 0;
#X connect 10 0 9 0;
#X restore 234 390 pd vol_level_mod;
#N canvas 597 87 680 300 freqmod1 0;
#X obj 76 219 outlet~;
#X obj 70 78 osc~;
#X obj 78 187 *~;
#X obj 76 136 *~;
#X obj 219 130 noise~;
#X obj 253 3 inlet;
#X obj 133 76 inlet;
#X msg 225 54 bang;
#X obj 320 43 int;
#X obj 355 37 + 1;
#X obj 349 59 mod 2;
#X obj 76 162 +~;
#X obj 67 48 inlet;
#X text 72 32 freq;
#X text 125 59 fm depth;
#X text 254 -11 metro bang;
#X obj 279 91 tabosc4~ \$0fmnoise3;
#X obj 272 118 table \$0fmnoise3 259;
#X obj 191 191 tabwrite~ \$0fmnoise3;
#X connect 1 0 3 0;
#X connect 2 0 0 0;
#X connect 3 0 11 0;
#X connect 4 0 18 0;
#X connect 5 0 7 0;
#X connect 5 0 8 0;
#X connect 6 0 3 1;
#X connect 6 0 2 1;
#X connect 7 0 18 0;
#X connect 8 0 9 0;
#X connect 9 0 10 0;
#X connect 10 0 8 1;
#X connect 10 0 16 0;
#X connect 11 0 2 0;
#X connect 12 0 1 0;
#X connect 16 0 11 1;
#X restore 185 168 pd freqmod1;
#N canvas 8 83 450 300 fmdepthmod 0;
#X obj 170 185 line;
#X obj 176 163 pack 0 10000;
#X obj 176 117 metro 10000;
#X obj 176 139 random 50;
#X obj 159 228 outlet;
#X obj 179 96 inlet;
#X obj 269 33 r \$0rfmdroneseed;
#X msg 270 77 seed \$1;
#X obj 270 54 + 12;
#X connect 0 0 4 0;
#X connect 1 0 0 0;
#X connect 2 0 3 0;
#X connect 3 0 1 0;
#X connect 5 0 2 0;
#X connect 6 0 8 0;
#X connect 7 0 3 0;
#X connect 8 0 7 0;
#X restore 294 112 pd fmdepthmod;
#X obj 418 43 loadbang;
#X msg 403 70 bang;
#X text 286 -12 metro bang;
#X obj 167 236 osc~;
#X obj 110 132 mtof;
#X obj 239 136 *;
#X obj 366 9 inlet;
#X obj 274 186 r \$0rfmdroneseed;
#X msg 275 230 seed \$1;
#X obj 274 415 r \$0rfmdroneseed;
#X msg 275 459 seed \$1;
#X obj 275 207 + 14;
#X obj 276 436 + 16;
#X connect 0 0 25 0;
#X connect 1 0 8 0;
#X connect 1 0 17 0;
#X connect 1 0 19 2;
#X connect 2 0 3 1;
#X connect 3 0 4 0;
#X connect 4 0 7 0;
#X connect 5 0 24 0;
#X connect 6 0 2 0;
#X connect 7 0 13 0;
#X connect 8 0 9 0;
#X connect 9 0 7 1;
#X connect 10 0 19 0;
#X connect 14 0 16 0;
#X connect 16 0 6 1;
#X connect 16 0 9 1;
#X connect 17 0 6 0;
#X connect 18 0 4 1;
#X connect 19 0 5 1;
#X connect 20 0 26 0;
#X connect 21 0 22 0;
#X connect 22 0 20 0;
#X connect 22 0 18 0;
#X connect 24 0 3 0;
#X connect 25 0 5 0;
#X connect 26 0 19 1;
#X connect 27 0 26 1;
#X connect 28 0 32 0;
#X connect 29 0 17 0;
#X connect 30 0 33 0;
#X connect 31 0 8 0;
#X connect 32 0 29 0;
#X connect 33 0 31 0;
#X restore 220 445 pd rnd_fm_osc3;
#N canvas 28 103 723 642 rnd_fm_osc4 0;
#X obj 96 55 inlet;
#X obj 296 4 inlet;
#X obj 184 344 line~;
#X obj 168 366 *~;
#X obj 170 426 *~;
#X obj 165 202 +~;
#X obj 184 321 pack 0 1700;
#X obj 162 539 *~;
#X obj 185 491 random 8;
#N canvas 100 259 450 300 am1 0;
#X obj 91 228 outlet~;
#X obj 92 194 osc~;
#X obj 99 165 line;
#X obj 99 142 pack 0 850;
#X obj 99 99 inlet;
#X obj 209 101 inlet;
#X text 101 86 freq;
#X text 213 84 clocklen/2;
#X msg 208 148 1;
#X connect 1 0 0 0;
#X connect 2 0 1 0;
#X connect 3 0 2 0;
#X connect 4 0 3 0;
#X connect 5 0 3 1;
#X connect 5 0 8 0;
#X connect 8 0 1 1;
#X restore 183 517 pd am1;
#X obj 156 49 inlet;
#X text 95 37 freq;
#X text 161 32 modfreq;
#X obj 162 566 outlet~;
#X obj 224 46 inlet;
#X text 224 32 clocklen;
#X obj 351 227 / 2;
#X obj 188 293 random 2;
#N canvas 396 84 876 445 vol_level_mod 0;
#X obj 61 307 outlet;
#X msg 65 261 \$1 400;
#X obj 65 284 line;
#X obj 67 237 clip 0.125 0.3;
#X obj 74 173 metro 300;
#X obj 73 194 random 1000;
#X obj 71 213 / 1000;
#X obj 79 144 inlet;
#X obj 170 106 r \$0rfmdroneseed;
#X msg 171 150 seed \$1;
#X obj 170 129 + 21;
#X connect 1 0 2 0;
#X connect 2 0 0 0;
#X connect 3 0 1 0;
#X connect 4 0 5 0;
#X connect 5 0 6 0;
#X connect 6 0 3 0;
#X connect 7 0 4 0;
#X connect 8 0 10 0;
#X connect 9 0 5 0;
#X connect 10 0 9 0;
#X restore 234 390 pd vol_level_mod;
#N canvas 599 89 680 300 freqmod1 0;
#X obj 76 219 outlet~;
#X obj 70 78 osc~;
#X obj 78 187 *~;
#X obj 76 136 *~;
#X obj 219 130 noise~;
#X obj 253 3 inlet;
#X obj 133 76 inlet;
#X msg 225 54 bang;
#X obj 320 43 int;
#X obj 355 37 + 1;
#X obj 349 59 mod 2;
#X obj 76 162 +~;
#X obj 67 48 inlet;
#X text 72 32 freq;
#X text 125 59 fm depth;
#X text 254 -11 metro bang;
#X obj 280 92 tabosc4~ \$0fmnoise4;
#X obj 273 118 table \$0fmnoise4 259;
#X obj 191 191 tabwrite~ \$0fmnoise4;
#X connect 1 0 3 0;
#X connect 2 0 0 0;
#X connect 3 0 11 0;
#X connect 4 0 18 0;
#X connect 5 0 7 0;
#X connect 5 0 8 0;
#X connect 6 0 3 1;
#X connect 6 0 2 1;
#X connect 7 0 18 0;
#X connect 8 0 9 0;
#X connect 9 0 10 0;
#X connect 10 0 8 1;
#X connect 10 0 16 0;
#X connect 11 0 2 0;
#X connect 12 0 1 0;
#X connect 16 0 11 1;
#X restore 185 168 pd freqmod1;
#N canvas 8 83 450 300 fmdepthmod 0;
#X obj 170 185 line;
#X obj 176 163 pack 0 10000;
#X obj 176 117 metro 10000;
#X obj 176 139 random 50;
#X obj 159 228 outlet;
#X obj 179 96 inlet;
#X obj 269 33 r \$0rfmdroneseed;
#X msg 270 77 seed \$1;
#X obj 270 54 + 18;
#X connect 0 0 4 0;
#X connect 1 0 0 0;
#X connect 2 0 3 0;
#X connect 3 0 1 0;
#X connect 5 0 2 0;
#X connect 6 0 8 0;
#X connect 7 0 3 0;
#X connect 8 0 7 0;
#X restore 294 112 pd fmdepthmod;
#X obj 418 43 loadbang;
#X msg 403 70 bang;
#X text 286 -12 metro bang;
#X obj 167 236 osc~;
#X obj 110 132 mtof;
#X obj 239 136 *;
#X obj 366 9 inlet;
#X obj 274 186 r \$0rfmdroneseed;
#X msg 275 230 seed \$1;
#X obj 274 415 r \$0rfmdroneseed;
#X msg 275 459 seed \$1;
#X obj 275 207 + 20;
#X obj 276 436 + 22;
#X connect 0 0 25 0;
#X connect 1 0 8 0;
#X connect 1 0 17 0;
#X connect 1 0 19 2;
#X connect 2 0 3 1;
#X connect 3 0 4 0;
#X connect 4 0 7 0;
#X connect 5 0 24 0;
#X connect 6 0 2 0;
#X connect 7 0 13 0;
#X connect 8 0 9 0;
#X connect 9 0 7 1;
#X connect 10 0 19 0;
#X connect 14 0 16 0;
#X connect 16 0 6 1;
#X connect 16 0 9 1;
#X connect 17 0 6 0;
#X connect 18 0 4 1;
#X connect 19 0 5 1;
#X connect 20 0 26 0;
#X connect 21 0 22 0;
#X connect 22 0 20 0;
#X connect 22 0 18 0;
#X connect 24 0 3 0;
#X connect 25 0 5 0;
#X connect 26 0 19 1;
#X connect 27 0 26 1;
#X connect 28 0 32 0;
#X connect 29 0 17 0;
#X connect 30 0 33 0;
#X connect 31 0 8 0;
#X connect 32 0 29 0;
#X connect 33 0 31 0;
#X restore 319 467 pd rnd_fm_osc4;
#N canvas 26 101 723 642 rnd_fm_osc5 0;
#X obj 96 55 inlet;
#X obj 296 4 inlet;
#X obj 184 344 line~;
#X obj 168 366 *~;
#X obj 170 426 *~;
#X obj 165 202 +~;
#X obj 184 321 pack 0 1700;
#X obj 162 539 *~;
#X obj 185 491 random 8;
#N canvas 100 259 450 300 am1 0;
#X obj 91 228 outlet~;
#X obj 92 194 osc~;
#X obj 99 165 line;
#X obj 99 142 pack 0 850;
#X obj 99 99 inlet;
#X obj 209 101 inlet;
#X text 101 86 freq;
#X text 213 84 clocklen/2;
#X msg 208 148 1;
#X connect 1 0 0 0;
#X connect 2 0 1 0;
#X connect 3 0 2 0;
#X connect 4 0 3 0;
#X connect 5 0 3 1;
#X connect 5 0 8 0;
#X connect 8 0 1 1;
#X restore 183 517 pd am1;
#X obj 156 49 inlet;
#X text 95 37 freq;
#X text 161 32 modfreq;
#X obj 162 566 outlet~;
#X obj 224 46 inlet;
#X text 224 32 clocklen;
#X obj 351 227 / 2;
#X obj 188 293 random 2;
#N canvas 395 83 876 445 vol_level_mod 0;
#X obj 61 307 outlet;
#X msg 65 261 \$1 400;
#X obj 65 284 line;
#X obj 67 237 clip 0.125 0.3;
#X obj 74 173 metro 300;
#X obj 73 194 random 1000;
#X obj 71 213 / 1000;
#X obj 79 144 inlet;
#X obj 170 106 r \$0rfmdroneseed;
#X msg 171 150 seed \$1;
#X obj 170 129 + 27;
#X connect 1 0 2 0;
#X connect 2 0 0 0;
#X connect 3 0 1 0;
#X connect 4 0 5 0;
#X connect 5 0 6 0;
#X connect 6 0 3 0;
#X connect 7 0 4 0;
#X connect 8 0 10 0;
#X connect 9 0 5 0;
#X connect 10 0 9 0;
#X restore 234 390 pd vol_level_mod;
#N canvas 599 89 680 300 freqmod1 0;
#X obj 76 219 outlet~;
#X obj 70 78 osc~;
#X obj 78 187 *~;
#X obj 76 136 *~;
#X obj 219 130 noise~;
#X obj 253 3 inlet;
#X obj 133 76 inlet;
#X msg 225 54 bang;
#X obj 320 43 int;
#X obj 355 37 + 1;
#X obj 349 59 mod 2;
#X obj 76 162 +~;
#X obj 67 48 inlet;
#X text 72 32 freq;
#X text 125 59 fm depth;
#X text 254 -11 metro bang;
#X obj 280 92 tabosc4~ \$0fmnoise5;
#X obj 273 118 table \$0fmnoise5 259;
#X obj 191 191 tabwrite~ \$0fmnoise5;
#X connect 1 0 3 0;
#X connect 2 0 0 0;
#X connect 3 0 11 0;
#X connect 4 0 18 0;
#X connect 5 0 7 0;
#X connect 5 0 8 0;
#X connect 6 0 3 1;
#X connect 6 0 2 1;
#X connect 7 0 18 0;
#X connect 8 0 9 0;
#X connect 9 0 10 0;
#X connect 10 0 8 1;
#X connect 10 0 16 0;
#X connect 11 0 2 0;
#X connect 12 0 1 0;
#X connect 16 0 11 1;
#X restore 185 168 pd freqmod1;
#N canvas 8 83 450 300 fmdepthmod 0;
#X obj 170 185 line;
#X obj 176 163 pack 0 10000;
#X obj 176 117 metro 10000;
#X obj 176 139 random 50;
#X obj 159 228 outlet;
#X obj 179 96 inlet;
#X obj 270 33 r \$0rfmdroneseed;
#X msg 271 77 seed \$1;
#X obj 271 54 + 24;
#X connect 0 0 4 0;
#X connect 1 0 0 0;
#X connect 2 0 3 0;
#X connect 3 0 1 0;
#X connect 5 0 2 0;
#X connect 6 0 8 0;
#X connect 7 0 3 0;
#X connect 8 0 7 0;
#X restore 294 112 pd fmdepthmod;
#X obj 418 43 loadbang;
#X msg 403 70 bang;
#X text 286 -12 metro bang;
#X obj 167 236 osc~;
#X obj 110 132 mtof;
#X obj 239 136 *;
#X obj 366 9 inlet;
#X obj 274 186 r \$0rfmdroneseed;
#X msg 275 230 seed \$1;
#X obj 274 415 r \$0rfmdroneseed;
#X msg 275 459 seed \$1;
#X obj 275 207 + 26;
#X obj 276 436 + 28;
#X connect 0 0 25 0;
#X connect 1 0 8 0;
#X connect 1 0 17 0;
#X connect 1 0 19 2;
#X connect 2 0 3 1;
#X connect 3 0 4 0;
#X connect 4 0 7 0;
#X connect 5 0 24 0;
#X connect 6 0 2 0;
#X connect 7 0 13 0;
#X connect 8 0 9 0;
#X connect 9 0 7 1;
#X connect 10 0 19 0;
#X connect 14 0 16 0;
#X connect 16 0 6 1;
#X connect 16 0 9 1;
#X connect 17 0 6 0;
#X connect 18 0 4 1;
#X connect 19 0 5 1;
#X connect 20 0 26 0;
#X connect 21 0 22 0;
#X connect 22 0 20 0;
#X connect 22 0 18 0;
#X connect 24 0 3 0;
#X connect 25 0 5 0;
#X connect 26 0 19 1;
#X connect 27 0 26 1;
#X connect 28 0 32 0;
#X connect 29 0 17 0;
#X connect 30 0 33 0;
#X connect 31 0 8 0;
#X connect 32 0 29 0;
#X connect 33 0 31 0;
#X restore 424 481 pd rnd_fm_osc5;
#N canvas 28 103 723 642 rnd_fm_osc6 0;
#X obj 96 55 inlet;
#X obj 296 4 inlet;
#X obj 184 344 line~;
#X obj 168 366 *~;
#X obj 170 426 *~;
#X obj 165 202 +~;
#X obj 184 321 pack 0 1700;
#X obj 162 539 *~;
#X obj 185 491 random 8;
#N canvas 100 259 450 300 am1 0;
#X obj 91 228 outlet~;
#X obj 92 194 osc~;
#X obj 99 165 line;
#X obj 99 142 pack 0 850;
#X obj 99 99 inlet;
#X obj 209 101 inlet;
#X text 101 86 freq;
#X text 213 84 clocklen/2;
#X msg 208 148 1;
#X connect 1 0 0 0;
#X connect 2 0 1 0;
#X connect 3 0 2 0;
#X connect 4 0 3 0;
#X connect 5 0 3 1;
#X connect 5 0 8 0;
#X connect 8 0 1 1;
#X restore 183 517 pd am1;
#X obj 156 49 inlet;
#X text 95 37 freq;
#X text 161 32 modfreq;
#X obj 162 566 outlet~;
#X obj 224 46 inlet;
#X text 224 32 clocklen;
#X obj 351 227 / 2;
#X obj 188 293 random 2;
#N canvas 395 83 876 445 vol_level_mod 0;
#X obj 61 307 outlet;
#X msg 65 261 \$1 400;
#X obj 65 284 line;
#X obj 67 237 clip 0.125 0.3;
#X obj 74 173 metro 300;
#X obj 73 194 random 1000;
#X obj 71 213 / 1000;
#X obj 79 144 inlet;
#X obj 170 106 r \$0rfmdroneseed;
#X msg 171 150 seed \$1;
#X obj 171 129 + 33;
#X connect 1 0 2 0;
#X connect 2 0 0 0;
#X connect 3 0 1 0;
#X connect 4 0 5 0;
#X connect 5 0 6 0;
#X connect 6 0 3 0;
#X connect 7 0 4 0;
#X connect 8 0 10 0;
#X connect 9 0 5 0;
#X connect 10 0 9 0;
#X restore 234 390 pd vol_level_mod;
#N canvas 601 91 680 300 freqmod1 0;
#X obj 76 219 outlet~;
#X obj 70 78 osc~;
#X obj 78 187 *~;
#X obj 76 136 *~;
#X obj 219 130 noise~;
#X obj 253 3 inlet;
#X obj 133 76 inlet;
#X msg 225 54 bang;
#X obj 320 43 int;
#X obj 355 37 + 1;
#X obj 349 59 mod 2;
#X obj 76 162 +~;
#X obj 67 48 inlet;
#X text 72 32 freq;
#X text 125 59 fm depth;
#X text 254 -11 metro bang;
#X obj 280 92 tabosc4~ \$0fmnoise6;
#X obj 274 119 table \$0fmnoise6 259;
#X obj 191 192 tabwrite~ \$0fmnoise6;
#X connect 1 0 3 0;
#X connect 2 0 0 0;
#X connect 3 0 11 0;
#X connect 4 0 18 0;
#X connect 5 0 7 0;
#X connect 5 0 8 0;
#X connect 6 0 3 1;
#X connect 6 0 2 1;
#X connect 7 0 18 0;
#X connect 8 0 9 0;
#X connect 9 0 10 0;
#X connect 10 0 8 1;
#X connect 10 0 16 0;
#X connect 11 0 2 0;
#X connect 12 0 1 0;
#X connect 16 0 11 1;
#X restore 185 168 pd freqmod1;
#N canvas 8 83 450 300 fmdepthmod 0;
#X obj 170 185 line;
#X obj 176 163 pack 0 10000;
#X obj 176 117 metro 10000;
#X obj 176 139 random 50;
#X obj 159 228 outlet;
#X obj 179 96 inlet;
#X obj 269 33 r \$0rfmdroneseed;
#X msg 270 77 seed \$1;
#X obj 270 54 + 30;
#X connect 0 0 4 0;
#X connect 1 0 0 0;
#X connect 2 0 3 0;
#X connect 3 0 1 0;
#X connect 5 0 2 0;
#X connect 6 0 8 0;
#X connect 7 0 3 0;
#X connect 8 0 7 0;
#X restore 294 112 pd fmdepthmod;
#X obj 418 43 loadbang;
#X msg 403 70 bang;
#X text 286 -12 metro bang;
#X obj 167 236 osc~;
#X obj 110 132 mtof;
#X obj 239 136 *;
#X obj 366 9 inlet;
#X obj 274 186 r \$0rfmdroneseed;
#X msg 275 230 seed \$1;
#X obj 274 415 r \$0rfmdroneseed;
#X msg 275 459 seed \$1;
#X obj 275 207 + 32;
#X obj 277 436 + 34;
#X connect 0 0 25 0;
#X connect 1 0 8 0;
#X connect 1 0 17 0;
#X connect 1 0 19 2;
#X connect 2 0 3 1;
#X connect 3 0 4 0;
#X connect 4 0 7 0;
#X connect 5 0 24 0;
#X connect 6 0 2 0;
#X connect 7 0 13 0;
#X connect 8 0 9 0;
#X connect 9 0 7 1;
#X connect 10 0 19 0;
#X connect 14 0 16 0;
#X connect 16 0 6 1;
#X connect 16 0 9 1;
#X connect 17 0 6 0;
#X connect 18 0 4 1;
#X connect 19 0 5 1;
#X connect 20 0 26 0;
#X connect 21 0 22 0;
#X connect 22 0 20 0;
#X connect 22 0 18 0;
#X connect 24 0 3 0;
#X connect 25 0 5 0;
#X connect 26 0 19 1;
#X connect 27 0 26 1;
#X connect 28 0 32 0;
#X connect 29 0 17 0;
#X connect 30 0 33 0;
#X connect 31 0 8 0;
#X connect 32 0 29 0;
#X connect 33 0 31 0;
#X restore 525 501 pd rnd_fm_osc6;
#N canvas 26 101 723 642 rnd_fm_osc7 0;
#X obj 96 55 inlet;
#X obj 296 4 inlet;
#X obj 184 344 line~;
#X obj 168 366 *~;
#X obj 170 426 *~;
#X obj 165 202 +~;
#X obj 184 321 pack 0 1700;
#X obj 162 539 *~;
#X obj 185 491 random 8;
#N canvas 99 258 450 300 am1 0;
#X obj 91 228 outlet~;
#X obj 92 194 osc~;
#X obj 99 165 line;
#X obj 99 142 pack 0 850;
#X obj 99 99 inlet;
#X obj 209 101 inlet;
#X text 101 86 freq;
#X text 213 84 clocklen/2;
#X msg 208 148 1;
#X connect 1 0 0 0;
#X connect 2 0 1 0;
#X connect 3 0 2 0;
#X connect 4 0 3 0;
#X connect 5 0 3 1;
#X connect 5 0 8 0;
#X connect 8 0 1 1;
#X restore 183 517 pd am1;
#X obj 156 49 inlet;
#X text 95 37 freq;
#X text 161 32 modfreq;
#X obj 162 566 outlet~;
#X obj 224 46 inlet;
#X text 224 32 clocklen;
#X obj 351 227 / 2;
#X obj 188 293 random 2;
#N canvas 395 83 876 445 vol_level_mod 0;
#X obj 61 307 outlet;
#X msg 65 261 \$1 400;
#X obj 65 284 line;
#X obj 67 237 clip 0.125 0.3;
#X obj 74 173 metro 300;
#X obj 73 194 random 1000;
#X obj 71 213 / 1000;
#X obj 79 144 inlet;
#X obj 170 106 r \$0rfmdroneseed;
#X msg 171 150 seed \$1;
#X obj 171 129 + 39;
#X connect 1 0 2 0;
#X connect 2 0 0 0;
#X connect 3 0 1 0;
#X connect 4 0 5 0;
#X connect 5 0 6 0;
#X connect 6 0 3 0;
#X connect 7 0 4 0;
#X connect 8 0 10 0;
#X connect 9 0 5 0;
#X connect 10 0 9 0;
#X restore 234 390 pd vol_level_mod;
#N canvas 600 90 680 300 freqmod1 0;
#X obj 76 219 outlet~;
#X obj 70 78 osc~;
#X obj 78 187 *~;
#X obj 76 136 *~;
#X obj 219 130 noise~;
#X obj 253 3 inlet;
#X obj 133 76 inlet;
#X msg 225 54 bang;
#X obj 320 43 int;
#X obj 355 37 + 1;
#X obj 349 59 mod 2;
#X obj 76 162 +~;
#X obj 67 48 inlet;
#X text 72 32 freq;
#X text 125 59 fm depth;
#X text 254 -11 metro bang;
#X obj 280 92 tabosc4~ \$0fmnoise7;
#X obj 273 118 table \$0fmnoise7 259;
#X obj 192 191 tabwrite~ \$0fmnoise7;
#X connect 1 0 3 0;
#X connect 2 0 0 0;
#X connect 3 0 11 0;
#X connect 4 0 18 0;
#X connect 5 0 7 0;
#X connect 5 0 8 0;
#X connect 6 0 3 1;
#X connect 6 0 2 1;
#X connect 7 0 18 0;
#X connect 8 0 9 0;
#X connect 9 0 10 0;
#X connect 10 0 8 1;
#X connect 10 0 16 0;
#X connect 11 0 2 0;
#X connect 12 0 1 0;
#X connect 16 0 11 1;
#X restore 185 168 pd freqmod1;
#N canvas 8 83 450 300 fmdepthmod 0;
#X obj 170 185 line;
#X obj 176 163 pack 0 10000;
#X obj 176 117 metro 10000;
#X obj 176 139 random 50;
#X obj 159 228 outlet;
#X obj 179 96 inlet;
#X obj 269 33 r \$0rfmdroneseed;
#X msg 270 77 seed \$1;
#X obj 270 54 + 36;
#X connect 0 0 4 0;
#X connect 1 0 0 0;
#X connect 2 0 3 0;
#X connect 3 0 1 0;
#X connect 5 0 2 0;
#X connect 6 0 8 0;
#X connect 7 0 3 0;
#X connect 8 0 7 0;
#X restore 294 112 pd fmdepthmod;
#X obj 418 43 loadbang;
#X msg 403 70 bang;
#X text 286 -12 metro bang;
#X obj 167 236 osc~;
#X obj 110 132 mtof;
#X obj 239 136 *;
#X obj 366 9 inlet;
#X obj 274 186 r \$0rfmdroneseed;
#X msg 275 230 seed \$1;
#X obj 274 415 r \$0rfmdroneseed;
#X msg 275 459 seed \$1;
#X obj 275 207 + 38;
#X obj 277 436 + 40;
#X connect 0 0 25 0;
#X connect 1 0 8 0;
#X connect 1 0 17 0;
#X connect 1 0 19 2;
#X connect 2 0 3 1;
#X connect 3 0 4 0;
#X connect 4 0 7 0;
#X connect 5 0 24 0;
#X connect 6 0 2 0;
#X connect 7 0 13 0;
#X connect 8 0 9 0;
#X connect 9 0 7 1;
#X connect 10 0 19 0;
#X connect 14 0 16 0;
#X connect 16 0 6 1;
#X connect 16 0 9 1;
#X connect 17 0 6 0;
#X connect 18 0 4 1;
#X connect 19 0 5 1;
#X connect 20 0 26 0;
#X connect 21 0 22 0;
#X connect 22 0 20 0;
#X connect 22 0 18 0;
#X connect 24 0 3 0;
#X connect 25 0 5 0;
#X connect 26 0 19 1;
#X connect 27 0 26 1;
#X connect 28 0 32 0;
#X connect 29 0 17 0;
#X connect 30 0 33 0;
#X connect 31 0 8 0;
#X connect 32 0 29 0;
#X connect 33 0 31 0;
#X restore 640 505 pd rnd_fm_osc7;
#X obj 321 56 inlet;
#X text 361 56 bang to change;
#X obj 343 123 tgl 15 1 empty empty ext 17 7 0 10 -262144 -1 -1 0 1
;
#X obj -57 228 t b;
#X obj -56 182 metro;
#X obj 409 90 == 0;
#X obj 258 42 != 0;
#X obj -62 206 spigot;
#X obj 283 77 spigot;
#X obj 184 124 nbx 3 14 0.1 10 0 1 empty empty fmd -19 8 0 10 -262144
-1 -1 0.52 256;
#X obj 525 70 s \$0rfmdroneseed;
#X obj 497 49 t b f;
#X obj 305 106 nbx 7 14 1 1e+037 0 1 empty empty seed -27 8 0 10 -262144
-1 -1 45263 256;
#X obj 196 25 inlet;
#X text 202 8 reset;
#X obj 196 48 t b;
#X text 469 118 ardots binary synth patch. added pitch control \, random
seed \, pan and some other stuff.;
#X text 470 150 9/2011 martin brinkmann;
#X connect 0 0 10 1;
#X connect 1 0 9 0;
#X connect 2 0 8 0;
#X connect 3 0 7 0;
#X connect 4 0 52 0;
#X connect 5 0 53 0;
#X connect 6 0 54 0;
#X connect 7 0 6 0;
#X connect 7 1 6 1;
#X connect 8 0 5 0;
#X connect 8 1 5 1;
#X connect 9 0 4 0;
#X connect 9 1 4 1;
#X connect 10 0 50 0;
#X connect 10 1 51 0;
#X connect 11 0 50 0;
#X connect 11 1 51 0;
#X connect 12 0 50 0;
#X connect 12 1 51 0;
#X connect 13 0 50 0;
#X connect 13 1 51 0;
#X connect 14 0 0 2;
#X connect 14 0 46 0;
#X connect 14 0 52 2;
#X connect 14 0 53 2;
#X connect 14 0 54 2;
#X connect 14 0 55 2;
#X connect 14 0 56 2;
#X connect 14 0 57 2;
#X connect 17 0 19 0;
#X connect 18 0 55 0;
#X connect 19 0 18 0;
#X connect 19 1 18 1;
#X connect 20 0 50 0;
#X connect 20 1 51 0;
#X connect 21 0 24 0;
#X connect 22 0 4 0;
#X connect 22 0 5 0;
#X connect 22 0 6 0;
#X connect 22 0 18 0;
#X connect 22 0 39 0;
#X connect 22 0 42 0;
#X connect 22 0 0 0;
#X connect 23 0 22 0;
#X connect 24 0 22 0;
#X connect 24 0 28 0;
#X connect 24 1 22 1;
#X connect 24 1 28 1;
#X connect 26 0 0 1;
#X connect 26 0 52 1;
#X connect 26 0 53 1;
#X connect 26 0 54 1;
#X connect 26 0 55 1;
#X connect 27 0 28 0;
#X connect 27 0 56 1;
#X connect 27 0 57 1;
#X connect 28 0 26 0;
#X connect 29 0 70 0;
#X connect 30 0 62 0;
#X connect 31 0 10 0;
#X connect 32 0 11 0;
#X connect 33 0 12 0;
#X connect 34 0 13 0;
#X connect 35 0 20 0;
#X connect 36 0 44 0;
#X connect 37 0 45 0;
#X connect 38 0 40 0;
#X connect 39 0 56 0;
#X connect 40 0 39 0;
#X connect 40 1 39 1;
#X connect 41 0 43 0;
#X connect 42 0 57 0;
#X connect 43 0 42 0;
#X connect 43 1 42 1;
#X connect 44 0 50 0;
#X connect 44 1 51 0;
#X connect 45 0 50 0;
#X connect 45 1 51 0;
#X connect 46 0 62 0;
#X connect 46 1 62 1;
#X connect 47 0 48 0;
#X connect 48 0 49 0;
#X connect 48 1 49 1;
#X connect 49 0 50 1;
#X connect 49 0 51 1;
#X connect 50 0 15 0;
#X connect 51 0 16 0;
#X connect 52 0 11 1;
#X connect 53 0 12 1;
#X connect 54 0 13 1;
#X connect 55 0 20 1;
#X connect 56 0 44 1;
#X connect 57 0 45 1;
#X connect 58 0 66 0;
#X connect 60 0 63 0;
#X connect 60 0 64 0;
#X connect 61 0 0 3;
#X connect 61 0 52 3;
#X connect 61 0 53 3;
#X connect 61 0 54 3;
#X connect 61 0 55 3;
#X connect 61 0 56 3;
#X connect 61 0 57 3;
#X connect 62 0 65 0;
#X connect 63 0 65 1;
#X connect 64 0 66 1;
#X connect 65 0 61 0;
#X connect 66 0 61 0;
#X connect 67 0 0 4;
#X connect 67 0 52 4;
#X connect 67 0 53 4;
#X connect 67 0 54 4;
#X connect 67 0 55 4;
#X connect 67 0 56 4;
#X connect 67 0 57 4;
#X connect 69 0 30 0;
#X connect 69 0 14 0;
#X connect 69 1 68 0;
#X connect 70 0 69 0;
#X connect 71 0 73 0;
#X connect 73 0 70 0;
#X coords 0 -1 1 1 294 75 1 100 100;
#X restore 352 -65 pd rand_fm_drone;
#X obj 652 -86 bng 15 250 50 0 empty empty empty 17 7 0 10 -262144
-1 -1;
#X floatatom 295 13 5 0 0 0 - - -;
#X obj 496 -86 bng 15 250 50 0 empty empty empty 17 7 0 10 -262144
-1 -1;
#X obj 416 278 dac~;
#X obj 1025 87 bng 15 250 50 0 empty empty empty 17 7 0 10 -262144
-1 -1;
#X obj 768 50 bng 15 250 50 0 empty empty empty 17 7 0 10 -262144 -1
-1;
#N canvas 611 208 986 695 rand_fm_droneb 0;
#N canvas 29 104 723 642 rnd_fm_osc1 0;
#X obj 96 55 inlet;
#X obj 296 4 inlet;
#X obj 184 344 line~;
#X obj 168 366 *~;
#X obj 170 426 *~;
#X obj 168 212 +~;
#X obj 184 321 pack 0 1700;
#X obj 162 539 *~;
#X obj 185 491 random 8;
#N canvas 99 258 450 300 am1 0;
#X obj 91 228 outlet~;
#X obj 92 194 osc~;
#X obj 99 165 line;
#X obj 99 142 pack 0 850;
#X obj 99 99 inlet;
#X obj 209 101 inlet;
#X text 101 86 freq;
#X text 213 84 clocklen/2;
#X msg 208 148 1;
#X connect 1 0 0 0;
#X connect 2 0 1 0;
#X connect 3 0 2 0;
#X connect 4 0 3 0;
#X connect 5 0 3 1;
#X connect 5 0 8 0;
#X connect 8 0 1 1;
#X restore 183 517 pd am1;
#X obj 156 49 inlet;
#X text 95 37 freq;
#X text 161 32 modfreq;
#X obj 162 566 outlet~;
#X obj 224 46 inlet;
#X text 224 32 clocklen;
#X obj 351 227 / 2;
#X obj 188 293 random 2;
#N canvas 395 83 876 445 vol_level_mod 0;
#X obj 61 307 outlet;
#X msg 65 261 \$1 400;
#X obj 65 284 line;
#X obj 67 237 clip 0.125 0.3;
#X obj 74 173 metro 300;
#X obj 73 194 random 1000;
#X obj 71 213 / 1000;
#X obj 79 144 inlet;
#X obj 170 106 r \$0rfmdroneseedb;
#X msg 171 150 seed \$1;
#X obj 171 127 + 3;
#X connect 1 0 2 0;
#X connect 2 0 0 0;
#X connect 3 0 1 0;
#X connect 4 0 5 0;
#X connect 5 0 6 0;
#X connect 6 0 3 0;
#X connect 7 0 4 0;
#X connect 8 0 10 0;
#X connect 9 0 5 0;
#X connect 10 0 9 0;
#X restore 234 390 pd vol_level_mod;
#N canvas 600 90 680 300 freqmod1 0;
#X obj 82 219 outlet~;
#X obj 70 78 osc~;
#X obj 78 187 *~;
#X obj 76 136 *~;
#X obj 213 150 noise~;
#X obj 253 3 inlet;
#X obj 133 76 inlet;
#X msg 225 54 bang;
#X obj 320 43 int;
#X obj 355 37 + 1;
#X obj 349 59 mod 2;
#X obj 76 162 +~;
#X obj 67 48 inlet;
#X text 72 32 freq;
#X text 125 59 fm depth;
#X text 254 -11 metro bang;
#X obj 279 90 tabosc4~ \$0fmnoise1b;
#X obj 272 118 table \$0fmnoise1b 259;
#X obj 191 190 tabwrite~ \$0fmnoise1b;
#X connect 1 0 3 0;
#X connect 2 0 0 0;
#X connect 3 0 11 0;
#X connect 4 0 18 0;
#X connect 5 0 7 0;
#X connect 5 0 8 0;
#X connect 6 0 3 1;
#X connect 6 0 2 1;
#X connect 7 0 18 0;
#X connect 8 0 9 0;
#X connect 9 0 10 0;
#X connect 10 0 8 1;
#X connect 10 0 16 0;
#X connect 11 0 2 0;
#X connect 12 0 1 0;
#X connect 16 0 11 1;
#X restore 197 163 pd freqmod1;
#N canvas 11 86 450 300 fmdepthmod 0;
#X obj 170 185 line;
#X obj 176 163 pack 0 10000;
#X obj 176 117 metro 10000;
#X obj 176 139 random 50;
#X obj 159 228 outlet;
#X obj 179 96 inlet;
#X obj 269 33 r \$0rfmdroneseedb;
#X obj 270 54 + 1;
#X msg 270 77 seed \$1;
#X connect 0 0 4 0;
#X connect 1 0 0 0;
#X connect 2 0 3 0;
#X connect 3 0 1 0;
#X connect 5 0 2 0;
#X connect 6 0 7 0;
#X connect 7 0 8 0;
#X connect 8 0 3 0;
#X restore 294 112 pd fmdepthmod;
#X obj 418 43 loadbang;
#X msg 403 70 bang;
#X text 286 -12 metro bang;
#X obj 167 236 osc~;
#X obj 122 138 mtof;
#X obj 239 136 *;
#X obj 366 9 inlet;
#X obj 274 186 r \$0rfmdroneseedb;
#X msg 275 230 seed \$1;
#X obj 275 207 + 2;
#X obj 274 415 r \$0rfmdroneseedb;
#X msg 275 459 seed \$1;
#X obj 275 436 + 4;
#X connect 0 0 25 0;
#X connect 1 0 8 0;
#X connect 1 0 17 0;
#X connect 1 0 19 2;
#X connect 2 0 3 1;
#X connect 3 0 4 0;
#X connect 4 0 7 0;
#X connect 5 0 24 0;
#X connect 6 0 2 0;
#X connect 7 0 13 0;
#X connect 8 0 9 0;
#X connect 9 0 7 1;
#X connect 10 0 19 0;
#X connect 14 0 16 0;
#X connect 16 0 6 1;
#X connect 16 0 9 1;
#X connect 17 0 6 0;
#X connect 18 0 4 1;
#X connect 19 0 5 1;
#X connect 20 0 26 0;
#X connect 21 0 22 0;
#X connect 22 0 20 0;
#X connect 22 0 18 0;
#X connect 24 0 3 0;
#X connect 25 0 5 0;
#X connect 26 0 19 1;
#X connect 27 0 26 1;
#X connect 28 0 30 0;
#X connect 29 0 17 0;
#X connect 30 0 29 0;
#X connect 31 0 33 0;
#X connect 32 0 8 0;
#X connect 33 0 32 0;
#X restore 3 405 pd rnd_fm_osc1;
#X obj 142 143 nbx 3 14 -36 36 0 1 empty empty empty 0 -8 0 10 -262144
-1 -1 3 256;
#X obj 182 143 nbx 3 14 -36 36 0 1 empty empty empty 0 -8 0 10 -262144
-1 -1 5 256;
#X obj 222 143 nbx 3 14 -36 36 0 1 empty empty empty 0 -8 0 10 -262144
-1 -1 6 256;
#X obj 120 382 +;
#X obj 222 394 +;
#X obj 298 399 +;
#X obj 305 363 t b f;
#X obj 233 346 t b f;
#X obj 145 337 t b f;
#N canvas 0 0 450 300 pan1 0;
#X obj 120 15 inlet;
#X obj 297 51 inlet~;
#X obj 256 225 outlet~;
#X obj 336 218 outlet~;
#X obj 251 149 *~;
#X obj 323 154 *~;
#X obj 276 122 + 1;
#X obj 335 113 * -1;
#X obj 208 75 * -1;
#X obj 160 42 clip 0 1;
#X connect 0 0 9 0;
#X connect 1 0 4 0;
#X connect 1 0 5 1;
#X connect 4 0 2 0;
#X connect 5 0 3 0;
#X connect 6 0 4 1;
#X connect 7 0 5 0;
#X connect 8 0 6 0;
#X connect 8 0 7 0;
#X connect 9 0 8 0;
#X restore 16 578 pd pan1;
#N canvas 0 0 450 300 pan1 0;
#X obj 120 15 inlet;
#X obj 297 51 inlet~;
#X obj 256 225 outlet~;
#X obj 336 218 outlet~;
#X obj 251 149 *~;
#X obj 323 154 *~;
#X obj 276 122 + 1;
#X obj 335 113 * -1;
#X obj 208 75 * -1;
#X obj 160 42 clip 0 1;
#X connect 0 0 9 0;
#X connect 1 0 4 0;
#X connect 1 0 5 1;
#X connect 4 0 2 0;
#X connect 5 0 3 0;
#X connect 6 0 4 1;
#X connect 7 0 5 0;
#X connect 8 0 6 0;
#X connect 8 0 7 0;
#X connect 9 0 8 0;
#X restore 76 579 pd pan1;
#N canvas 0 0 450 300 pan1 0;
#X obj 120 15 inlet;
#X obj 297 51 inlet~;
#X obj 256 225 outlet~;
#X obj 336 218 outlet~;
#X obj 251 149 *~;
#X obj 323 154 *~;
#X obj 276 122 + 1;
#X obj 335 113 * -1;
#X obj 208 75 * -1;
#X obj 160 42 clip 0 1;
#X connect 0 0 9 0;
#X connect 1 0 4 0;
#X connect 1 0 5 1;
#X connect 4 0 2 0;
#X connect 5 0 3 0;
#X connect 6 0 4 1;
#X connect 7 0 5 0;
#X connect 8 0 6 0;
#X connect 8 0 7 0;
#X connect 9 0 8 0;
#X restore 141 579 pd pan1;
#N canvas 0 0 450 300 pan1 0;
#X obj 120 15 inlet;
#X obj 297 51 inlet~;
#X obj 256 225 outlet~;
#X obj 336 218 outlet~;
#X obj 251 149 *~;
#X obj 323 154 *~;
#X obj 276 122 + 1;
#X obj 335 113 * -1;
#X obj 208 75 * -1;
#X obj 160 42 clip 0 1;
#X connect 0 0 9 0;
#X connect 1 0 4 0;
#X connect 1 0 5 1;
#X connect 4 0 2 0;
#X connect 5 0 3 0;
#X connect 6 0 4 1;
#X connect 7 0 5 0;
#X connect 8 0 6 0;
#X connect 8 0 7 0;
#X connect 9 0 8 0;
#X restore 206 579 pd pan1;
#X obj 275 124 nbx 6 14 1 1e+037 0 1 empty empty clocklen -50 8 0 10
-262144 -1 -1 12000 256;
#X obj 94 717 outlet~;
#X obj 236 728 outlet~;
#X obj 262 143 nbx 3 14 -36 36 0 1 empty empty empty 0 -8 0 10 -262144
-1 -1 10 256;
#X obj 420 409 +;
#X obj 418 372 t b f;
#N canvas 0 0 450 300 pan1 0;
#X obj 120 15 inlet;
#X obj 297 51 inlet~;
#X obj 256 225 outlet~;
#X obj 336 218 outlet~;
#X obj 251 149 *~;
#X obj 323 154 *~;
#X obj 276 122 + 1;
#X obj 335 113 * -1;
#X obj 208 75 * -1;
#X obj 160 42 clip 0 1;
#X connect 0 0 9 0;
#X connect 1 0 4 0;
#X connect 1 0 5 1;
#X connect 4 0 2 0;
#X connect 5 0 3 0;
#X connect 6 0 4 1;
#X connect 7 0 5 0;
#X connect 8 0 6 0;
#X connect 8 0 7 0;
#X connect 9 0 8 0;
#X restore 274 575 pd pan1;
#X obj 35 22 inlet;
#X obj 10 190 +;
#X obj 102 143 nbx 3 14 0 127 0 1 empty empty empty 0 -8 0 10 -262144
-1 -1 69 256;
#X obj 34 45 t b f;
#X text 77 24 tp;
#X obj 63 207 mtof;
#X obj 127 124 nbx 3 14 0 127 0 1 empty empty modp -25 8 0 10 -262144
-1 -1 34 256;
#X obj 61 183 +;
#X obj 292 5 loadbang;
#X msg -87 112 bang;
#X obj 105 161 hsl 32 8 0 1 0 1 empty empty empty -2 -8 0 10 -262144
-1 -1 2000 1;
#X obj 145 161 hsl 32 8 0 1 0 1 empty empty empty -2 -8 0 10 -262144
-1 -1 900 1;
#X obj 185 161 hsl 32 8 0 1 0 1 empty empty empty -2 -8 0 10 -262144
-1 -1 1800 1;
#X obj 225 161 hsl 32 8 0 1 0 1 empty empty empty -2 -8 0 10 -262144
-1 -1 1400 1;
#X obj 265 161 hsl 32 8 0 1 0 1 empty empty empty -2 -8 0 10 -262144
-1 -1 2300 1;
#X obj 305 161 hsl 32 8 0 1 0 1 empty empty empty -2 -8 0 10 -262144
-1 -1 2900 1;
#X obj 345 161 hsl 32 8 0 1 0 1 empty empty empty -2 -8 0 10 -262144
-1 -1 400 1;
#X obj 302 143 nbx 3 14 -36 36 0 1 empty empty empty 0 -8 0 10 -262144
-1 -1 -11 256;
#X obj 533 417 +;
#X obj 535 383 t b f;
#X obj 342 143 nbx 3 14 -36 36 0 1 empty empty empty 0 -8 0 10 -262144
-1 -1 -9 256;
#X obj 663 420 +;
#X obj 667 389 t b f;
#N canvas 0 0 450 300 pan1 0;
#X obj 120 15 inlet;
#X obj 297 51 inlet~;
#X obj 256 225 outlet~;
#X obj 336 218 outlet~;
#X obj 251 149 *~;
#X obj 323 154 *~;
#X obj 276 122 + 1;
#X obj 335 113 * -1;
#X obj 208 75 * -1;
#X obj 160 42 clip 0 1;
#X connect 0 0 9 0;
#X connect 1 0 4 0;
#X connect 1 0 5 1;
#X connect 4 0 2 0;
#X connect 5 0 3 0;
#X connect 6 0 4 1;
#X connect 7 0 5 0;
#X connect 8 0 6 0;
#X connect 8 0 7 0;
#X connect 9 0 8 0;
#X restore 351 573 pd pan1;
#N canvas 0 0 450 300 pan1 0;
#X obj 120 15 inlet;
#X obj 297 51 inlet~;
#X obj 256 225 outlet~;
#X obj 336 218 outlet~;
#X obj 251 149 *~;
#X obj 323 154 *~;
#X obj 276 122 + 1;
#X obj 335 113 * -1;
#X obj 208 75 * -1;
#X obj 160 42 clip 0 1;
#X connect 0 0 9 0;
#X connect 1 0 4 0;
#X connect 1 0 5 1;
#X connect 4 0 2 0;
#X connect 5 0 3 0;
#X connect 6 0 4 1;
#X connect 7 0 5 0;
#X connect 8 0 6 0;
#X connect 8 0 7 0;
#X connect 9 0 8 0;
#X restore 418 574 pd pan1;
#X obj -58 155 t b f;
#X obj 383 115 vsl 8 48 0 1 0 1 empty empty empty 0 -9 0 10 -262144
-1 -1 3600 1;
#X obj 681 252 t f f;
#X obj 685 284 *;
#X obj 93 688 *~;
#X obj 238 701 *~;
#N canvas 23 98 723 642 rnd_fm_osc2 0;
#X obj 96 55 inlet;
#X obj 296 4 inlet;
#X obj 184 344 line~;
#X obj 168 366 *~;
#X obj 170 426 *~;
#X obj 165 202 +~;
#X obj 184 321 pack 0 1700;
#X obj 162 539 *~;
#X obj 185 491 random 8;
#N canvas 99 258 450 300 am1 0;
#X obj 91 228 outlet~;
#X obj 92 194 osc~;
#X obj 99 165 line;
#X obj 99 142 pack 0 850;
#X obj 99 99 inlet;
#X obj 209 101 inlet;
#X text 101 86 freq;
#X text 213 84 clocklen/2;
#X msg 208 148 1;
#X connect 1 0 0 0;
#X connect 2 0 1 0;
#X connect 3 0 2 0;
#X connect 4 0 3 0;
#X connect 5 0 3 1;
#X connect 5 0 8 0;
#X connect 8 0 1 1;
#X restore 183 517 pd am1;
#X obj 156 49 inlet;
#X text 95 37 freq;
#X text 161 32 modfreq;
#X obj 162 566 outlet~;
#X obj 224 46 inlet;
#X text 224 32 clocklen;
#X obj 351 227 / 2;
#X obj 188 293 random 2;
#N canvas 395 83 876 445 vol_level_mod 0;
#X obj 61 307 outlet;
#X msg 65 261 \$1 400;
#X obj 65 284 line;
#X obj 67 237 clip 0.125 0.3;
#X obj 74 173 metro 300;
#X obj 73 194 random 1000;
#X obj 71 213 / 1000;
#X obj 79 144 inlet;
#X obj 170 106 r \$0rfmdroneseedb;
#X msg 171 150 seed \$1;
#X obj 170 129 + 9;
#X connect 1 0 2 0;
#X connect 2 0 0 0;
#X connect 3 0 1 0;
#X connect 4 0 5 0;
#X connect 5 0 6 0;
#X connect 6 0 3 0;
#X connect 7 0 4 0;
#X connect 8 0 10 0;
#X connect 9 0 5 0;
#X connect 10 0 9 0;
#X restore 234 390 pd vol_level_mod;
#N canvas 595 85 680 300 freqmod1 0;
#X obj 76 219 outlet~;
#X obj 70 78 osc~;
#X obj 78 187 *~;
#X obj 76 136 *~;
#X obj 219 130 noise~;
#X obj 253 3 inlet;
#X obj 133 76 inlet;
#X msg 225 54 bang;
#X obj 320 43 int;
#X obj 355 37 + 1;
#X obj 349 59 mod 2;
#X obj 76 162 +~;
#X obj 67 48 inlet;
#X text 72 32 freq;
#X text 125 59 fm depth;
#X text 254 -11 metro bang;
#X obj 279 91 tabosc4~ \$0fmnoise2b;
#X obj 272 118 table \$0fmnoise2b 259;
#X obj 191 191 tabwrite~ \$0fmnoise2b;
#X connect 1 0 3 0;
#X connect 2 0 0 0;
#X connect 3 0 11 0;
#X connect 4 0 18 0;
#X connect 5 0 7 0;
#X connect 5 0 8 0;
#X connect 6 0 3 1;
#X connect 6 0 2 1;
#X connect 7 0 18 0;
#X connect 8 0 9 0;
#X connect 9 0 10 0;
#X connect 10 0 8 1;
#X connect 10 0 16 0;
#X connect 11 0 2 0;
#X connect 12 0 1 0;
#X connect 16 0 11 1;
#X restore 185 168 pd freqmod1;
#N canvas 8 83 450 300 fmdepthmod 0;
#X obj 170 185 line;
#X obj 176 163 pack 0 10000;
#X obj 176 117 metro 10000;
#X obj 176 139 random 50;
#X obj 159 228 outlet;
#X obj 179 96 inlet;
#X obj 269 33 r \$0rfmdroneseedb;
#X msg 270 77 seed \$1;
#X obj 270 54 + 6;
#X connect 0 0 4 0;
#X connect 1 0 0 0;
#X connect 2 0 3 0;
#X connect 3 0 1 0;
#X connect 5 0 2 0;
#X connect 6 0 8 0;
#X connect 7 0 3 0;
#X connect 8 0 7 0;
#X restore 294 112 pd fmdepthmod;
#X obj 418 43 loadbang;
#X msg 403 70 bang;
#X text 286 -12 metro bang;
#X obj 167 236 osc~;
#X obj 108 118 mtof;
#X obj 239 136 *;
#X obj 366 9 inlet;
#X obj 274 186 r \$0rfmdroneseedb;
#X msg 275 230 seed \$1;
#X obj 274 415 r \$0rfmdroneseedb;
#X msg 275 459 seed \$1;
#X obj 275 207 + 8;
#X obj 276 436 + 10;
#X connect 0 0 25 0;
#X connect 1 0 8 0;
#X connect 1 0 17 0;
#X connect 1 0 19 2;
#X connect 2 0 3 1;
#X connect 3 0 4 0;
#X connect 4 0 7 0;
#X connect 5 0 24 0;
#X connect 6 0 2 0;
#X connect 7 0 13 0;
#X connect 8 0 9 0;
#X connect 9 0 7 1;
#X connect 10 0 19 0;
#X connect 14 0 16 0;
#X connect 16 0 6 1;
#X connect 16 0 9 1;
#X connect 17 0 6 0;
#X connect 18 0 4 1;
#X connect 19 0 5 1;
#X connect 20 0 26 0;
#X connect 21 0 22 0;
#X connect 22 0 20 0;
#X connect 22 0 18 0;
#X connect 24 0 3 0;
#X connect 25 0 5 0;
#X connect 26 0 19 1;
#X connect 27 0 26 1;
#X connect 28 0 32 0;
#X connect 29 0 17 0;
#X connect 30 0 33 0;
#X connect 31 0 8 0;
#X connect 32 0 29 0;
#X connect 33 0 31 0;
#X restore 115 423 pd rnd_fm_osc2;
#N canvas 25 100 723 642 rnd_fm_osc3 0;
#X obj 96 55 inlet;
#X obj 296 4 inlet;
#X obj 184 344 line~;
#X obj 168 366 *~;
#X obj 170 426 *~;
#X obj 165 202 +~;
#X obj 184 321 pack 0 1700;
#X obj 162 539 *~;
#X obj 185 491 random 8;
#N canvas 100 259 450 300 am1 0;
#X obj 91 228 outlet~;
#X obj 92 194 osc~;
#X obj 99 165 line;
#X obj 99 142 pack 0 850;
#X obj 99 99 inlet;
#X obj 209 101 inlet;
#X text 101 86 freq;
#X text 213 84 clocklen/2;
#X msg 208 148 1;
#X connect 1 0 0 0;
#X connect 2 0 1 0;
#X connect 3 0 2 0;
#X connect 4 0 3 0;
#X connect 5 0 3 1;
#X connect 5 0 8 0;
#X connect 8 0 1 1;
#X restore 183 517 pd am1;
#X obj 156 49 inlet;
#X text 95 37 freq;
#X text 161 32 modfreq;
#X obj 162 566 outlet~;
#X obj 224 46 inlet;
#X text 224 32 clocklen;
#X obj 351 227 / 2;
#X obj 188 293 random 2;
#N canvas 395 83 876 445 vol_level_mod 0;
#X obj 61 307 outlet;
#X msg 65 261 \$1 400;
#X obj 65 284 line;
#X obj 67 237 clip 0.125 0.3;
#X obj 74 173 metro 300;
#X obj 73 194 random 1000;
#X obj 71 213 / 1000;
#X obj 79 144 inlet;
#X obj 170 106 r \$0rfmdroneseedb;
#X msg 171 150 seed \$1;
#X obj 170 129 + 15;
#X connect 1 0 2 0;
#X connect 2 0 0 0;
#X connect 3 0 1 0;
#X connect 4 0 5 0;
#X connect 5 0 6 0;
#X connect 6 0 3 0;
#X connect 7 0 4 0;
#X connect 8 0 10 0;
#X connect 9 0 5 0;
#X connect 10 0 9 0;
#X restore 234 390 pd vol_level_mod;
#N canvas 597 87 680 300 freqmod1 0;
#X obj 76 219 outlet~;
#X obj 70 78 osc~;
#X obj 78 187 *~;
#X obj 76 136 *~;
#X obj 219 130 noise~;
#X obj 253 3 inlet;
#X obj 133 76 inlet;
#X msg 225 54 bang;
#X obj 320 43 int;
#X obj 355 37 + 1;
#X obj 349 59 mod 2;
#X obj 76 162 +~;
#X obj 67 48 inlet;
#X text 72 32 freq;
#X text 125 59 fm depth;
#X text 254 -11 metro bang;
#X obj 279 91 tabosc4~ \$0fmnoise3b;
#X obj 272 118 table \$0fmnoise3b 259;
#X obj 191 191 tabwrite~ \$0fmnoise3b;
#X connect 1 0 3 0;
#X connect 2 0 0 0;
#X connect 3 0 11 0;
#X connect 4 0 18 0;
#X connect 5 0 7 0;
#X connect 5 0 8 0;
#X connect 6 0 3 1;
#X connect 6 0 2 1;
#X connect 7 0 18 0;
#X connect 8 0 9 0;
#X connect 9 0 10 0;
#X connect 10 0 8 1;
#X connect 10 0 16 0;
#X connect 11 0 2 0;
#X connect 12 0 1 0;
#X connect 16 0 11 1;
#X restore 185 168 pd freqmod1;
#N canvas 8 83 450 300 fmdepthmod 0;
#X obj 170 185 line;
#X obj 176 163 pack 0 10000;
#X obj 176 117 metro 10000;
#X obj 176 139 random 50;
#X obj 159 228 outlet;
#X obj 179 96 inlet;
#X obj 269 33 r \$0rfmdroneseedb;
#X msg 270 77 seed \$1;
#X obj 270 54 + 12;
#X connect 0 0 4 0;
#X connect 1 0 0 0;
#X connect 2 0 3 0;
#X connect 3 0 1 0;
#X connect 5 0 2 0;
#X connect 6 0 8 0;
#X connect 7 0 3 0;
#X connect 8 0 7 0;
#X restore 294 112 pd fmdepthmod;
#X obj 418 43 loadbang;
#X msg 403 70 bang;
#X text 286 -12 metro bang;
#X obj 167 236 osc~;
#X obj 110 132 mtof;
#X obj 239 136 *;
#X obj 366 9 inlet;
#X obj 274 186 r \$0rfmdroneseedb;
#X msg 275 230 seed \$1;
#X obj 274 415 r \$0rfmdroneseedb;
#X msg 275 459 seed \$1;
#X obj 275 207 + 14;
#X obj 276 436 + 16;
#X connect 0 0 25 0;
#X connect 1 0 8 0;
#X connect 1 0 17 0;
#X connect 1 0 19 2;
#X connect 2 0 3 1;
#X connect 3 0 4 0;
#X connect 4 0 7 0;
#X connect 5 0 24 0;
#X connect 6 0 2 0;
#X connect 7 0 13 0;
#X connect 8 0 9 0;
#X connect 9 0 7 1;
#X connect 10 0 19 0;
#X connect 14 0 16 0;
#X connect 16 0 6 1;
#X connect 16 0 9 1;
#X connect 17 0 6 0;
#X connect 18 0 4 1;
#X connect 19 0 5 1;
#X connect 20 0 26 0;
#X connect 21 0 22 0;
#X connect 22 0 20 0;
#X connect 22 0 18 0;
#X connect 24 0 3 0;
#X connect 25 0 5 0;
#X connect 26 0 19 1;
#X connect 27 0 26 1;
#X connect 28 0 32 0;
#X connect 29 0 17 0;
#X connect 30 0 33 0;
#X connect 31 0 8 0;
#X connect 32 0 29 0;
#X connect 33 0 31 0;
#X restore 220 445 pd rnd_fm_osc3;
#N canvas 28 103 723 642 rnd_fm_osc4 0;
#X obj 96 55 inlet;
#X obj 296 4 inlet;
#X obj 184 344 line~;
#X obj 168 366 *~;
#X obj 170 426 *~;
#X obj 165 202 +~;
#X obj 184 321 pack 0 1700;
#X obj 162 539 *~;
#X obj 185 491 random 8;
#N canvas 100 259 450 300 am1 0;
#X obj 91 228 outlet~;
#X obj 92 194 osc~;
#X obj 99 165 line;
#X obj 99 142 pack 0 850;
#X obj 99 99 inlet;
#X obj 209 101 inlet;
#X text 101 86 freq;
#X text 213 84 clocklen/2;
#X msg 208 148 1;
#X connect 1 0 0 0;
#X connect 2 0 1 0;
#X connect 3 0 2 0;
#X connect 4 0 3 0;
#X connect 5 0 3 1;
#X connect 5 0 8 0;
#X connect 8 0 1 1;
#X restore 183 517 pd am1;
#X obj 156 49 inlet;
#X text 95 37 freq;
#X text 161 32 modfreq;
#X obj 162 566 outlet~;
#X obj 224 46 inlet;
#X text 224 32 clocklen;
#X obj 351 227 / 2;
#X obj 188 293 random 2;
#N canvas 396 84 876 445 vol_level_mod 0;
#X obj 61 307 outlet;
#X msg 65 261 \$1 400;
#X obj 65 284 line;
#X obj 67 237 clip 0.125 0.3;
#X obj 74 173 metro 300;
#X obj 73 194 random 1000;
#X obj 71 213 / 1000;
#X obj 79 144 inlet;
#X obj 170 106 r \$0rfmdroneseedb;
#X msg 171 150 seed \$1;
#X obj 170 129 + 21;
#X connect 1 0 2 0;
#X connect 2 0 0 0;
#X connect 3 0 1 0;
#X connect 4 0 5 0;
#X connect 5 0 6 0;
#X connect 6 0 3 0;
#X connect 7 0 4 0;
#X connect 8 0 10 0;
#X connect 9 0 5 0;
#X connect 10 0 9 0;
#X restore 234 390 pd vol_level_mod;
#N canvas 599 89 680 300 freqmod1 0;
#X obj 76 219 outlet~;
#X obj 70 78 osc~;
#X obj 78 187 *~;
#X obj 76 136 *~;
#X obj 219 130 noise~;
#X obj 253 3 inlet;
#X obj 133 76 inlet;
#X msg 225 54 bang;
#X obj 320 43 int;
#X obj 355 37 + 1;
#X obj 349 59 mod 2;
#X obj 76 162 +~;
#X obj 67 48 inlet;
#X text 72 32 freq;
#X text 125 59 fm depth;
#X text 254 -11 metro bang;
#X obj 280 92 tabosc4~ \$0fmnoise4b;
#X obj 273 118 table \$0fmnoise4b 259;
#X obj 191 191 tabwrite~ \$0fmnoise4b;
#X connect 1 0 3 0;
#X connect 2 0 0 0;
#X connect 3 0 11 0;
#X connect 4 0 18 0;
#X connect 5 0 7 0;
#X connect 5 0 8 0;
#X connect 6 0 3 1;
#X connect 6 0 2 1;
#X connect 7 0 18 0;
#X connect 8 0 9 0;
#X connect 9 0 10 0;
#X connect 10 0 8 1;
#X connect 10 0 16 0;
#X connect 11 0 2 0;
#X connect 12 0 1 0;
#X connect 16 0 11 1;
#X restore 185 168 pd freqmod1;
#N canvas 8 83 450 300 fmdepthmod 0;
#X obj 170 185 line;
#X obj 176 163 pack 0 10000;
#X obj 176 117 metro 10000;
#X obj 176 139 random 50;
#X obj 159 228 outlet;
#X obj 179 96 inlet;
#X obj 269 33 r \$0rfmdroneseedb;
#X msg 270 77 seed \$1;
#X obj 270 54 + 18;
#X connect 0 0 4 0;
#X connect 1 0 0 0;
#X connect 2 0 3 0;
#X connect 3 0 1 0;
#X connect 5 0 2 0;
#X connect 6 0 8 0;
#X connect 7 0 3 0;
#X connect 8 0 7 0;
#X restore 294 112 pd fmdepthmod;
#X obj 418 43 loadbang;
#X msg 403 70 bang;
#X text 286 -12 metro bang;
#X obj 167 236 osc~;
#X obj 110 132 mtof;
#X obj 239 136 *;
#X obj 366 9 inlet;
#X obj 274 186 r \$0rfmdroneseedb;
#X msg 275 230 seed \$1;
#X obj 274 415 r \$0rfmdroneseedb;
#X msg 275 459 seed \$1;
#X obj 275 207 + 20;
#X obj 276 436 + 22;
#X connect 0 0 25 0;
#X connect 1 0 8 0;
#X connect 1 0 17 0;
#X connect 1 0 19 2;
#X connect 2 0 3 1;
#X connect 3 0 4 0;
#X connect 4 0 7 0;
#X connect 5 0 24 0;
#X connect 6 0 2 0;
#X connect 7 0 13 0;
#X connect 8 0 9 0;
#X connect 9 0 7 1;
#X connect 10 0 19 0;
#X connect 14 0 16 0;
#X connect 16 0 6 1;
#X connect 16 0 9 1;
#X connect 17 0 6 0;
#X connect 18 0 4 1;
#X connect 19 0 5 1;
#X connect 20 0 26 0;
#X connect 21 0 22 0;
#X connect 22 0 20 0;
#X connect 22 0 18 0;
#X connect 24 0 3 0;
#X connect 25 0 5 0;
#X connect 26 0 19 1;
#X connect 27 0 26 1;
#X connect 28 0 32 0;
#X connect 29 0 17 0;
#X connect 30 0 33 0;
#X connect 31 0 8 0;
#X connect 32 0 29 0;
#X connect 33 0 31 0;
#X restore 319 467 pd rnd_fm_osc4;
#N canvas 26 101 723 642 rnd_fm_osc5 0;
#X obj 96 55 inlet;
#X obj 296 4 inlet;
#X obj 184 344 line~;
#X obj 168 366 *~;
#X obj 170 426 *~;
#X obj 165 202 +~;
#X obj 184 321 pack 0 1700;
#X obj 162 539 *~;
#X obj 185 491 random 8;
#N canvas 100 259 450 300 am1 0;
#X obj 91 228 outlet~;
#X obj 92 194 osc~;
#X obj 99 165 line;
#X obj 99 142 pack 0 850;
#X obj 99 99 inlet;
#X obj 209 101 inlet;
#X text 101 86 freq;
#X text 213 84 clocklen/2;
#X msg 208 148 1;
#X connect 1 0 0 0;
#X connect 2 0 1 0;
#X connect 3 0 2 0;
#X connect 4 0 3 0;
#X connect 5 0 3 1;
#X connect 5 0 8 0;
#X connect 8 0 1 1;
#X restore 183 517 pd am1;
#X obj 156 49 inlet;
#X text 95 37 freq;
#X text 161 32 modfreq;
#X obj 162 566 outlet~;
#X obj 224 46 inlet;
#X text 224 32 clocklen;
#X obj 351 227 / 2;
#X obj 188 293 random 2;
#N canvas 395 83 876 445 vol_level_mod 0;
#X obj 61 307 outlet;
#X msg 65 261 \$1 400;
#X obj 65 284 line;
#X obj 67 237 clip 0.125 0.3;
#X obj 74 173 metro 300;
#X obj 73 194 random 1000;
#X obj 71 213 / 1000;
#X obj 79 144 inlet;
#X obj 170 106 r \$0rfmdroneseedb;
#X msg 171 150 seed \$1;
#X obj 170 129 + 27;
#X connect 1 0 2 0;
#X connect 2 0 0 0;
#X connect 3 0 1 0;
#X connect 4 0 5 0;
#X connect 5 0 6 0;
#X connect 6 0 3 0;
#X connect 7 0 4 0;
#X connect 8 0 10 0;
#X connect 9 0 5 0;
#X connect 10 0 9 0;
#X restore 234 390 pd vol_level_mod;
#N canvas 599 89 680 300 freqmod1 0;
#X obj 76 219 outlet~;
#X obj 70 78 osc~;
#X obj 78 187 *~;
#X obj 76 136 *~;
#X obj 219 130 noise~;
#X obj 253 3 inlet;
#X obj 133 76 inlet;
#X msg 225 54 bang;
#X obj 320 43 int;
#X obj 355 37 + 1;
#X obj 349 59 mod 2;
#X obj 76 162 +~;
#X obj 67 48 inlet;
#X text 72 32 freq;
#X text 125 59 fm depth;
#X text 254 -11 metro bang;
#X obj 280 92 tabosc4~ \$0fmnoise5b;
#X obj 273 118 table \$0fmnoise5b 259;
#X obj 191 191 tabwrite~ \$0fmnoise5b;
#X connect 1 0 3 0;
#X connect 2 0 0 0;
#X connect 3 0 11 0;
#X connect 4 0 18 0;
#X connect 5 0 7 0;
#X connect 5 0 8 0;
#X connect 6 0 3 1;
#X connect 6 0 2 1;
#X connect 7 0 18 0;
#X connect 8 0 9 0;
#X connect 9 0 10 0;
#X connect 10 0 8 1;
#X connect 10 0 16 0;
#X connect 11 0 2 0;
#X connect 12 0 1 0;
#X connect 16 0 11 1;
#X restore 185 168 pd freqmod1;
#N canvas 8 83 450 300 fmdepthmod 0;
#X obj 170 185 line;
#X obj 176 163 pack 0 10000;
#X obj 176 117 metro 10000;
#X obj 176 139 random 50;
#X obj 159 228 outlet;
#X obj 179 96 inlet;
#X obj 270 33 r \$0rfmdroneseedb;
#X msg 271 77 seed \$1;
#X obj 271 54 + 24;
#X connect 0 0 4 0;
#X connect 1 0 0 0;
#X connect 2 0 3 0;
#X connect 3 0 1 0;
#X connect 5 0 2 0;
#X connect 6 0 8 0;
#X connect 7 0 3 0;
#X connect 8 0 7 0;
#X restore 294 112 pd fmdepthmod;
#X obj 418 43 loadbang;
#X msg 403 70 bang;
#X text 286 -12 metro bang;
#X obj 167 236 osc~;
#X obj 110 132 mtof;
#X obj 239 136 *;
#X obj 366 9 inlet;
#X obj 274 186 r \$0rfmdroneseedb;
#X msg 275 230 seed \$1;
#X obj 274 415 r \$0rfmdroneseedb;
#X msg 275 459 seed \$1;
#X obj 275 207 + 26;
#X obj 276 436 + 28;
#X connect 0 0 25 0;
#X connect 1 0 8 0;
#X connect 1 0 17 0;
#X connect 1 0 19 2;
#X connect 2 0 3 1;
#X connect 3 0 4 0;
#X connect 4 0 7 0;
#X connect 5 0 24 0;
#X connect 6 0 2 0;
#X connect 7 0 13 0;
#X connect 8 0 9 0;
#X connect 9 0 7 1;
#X connect 10 0 19 0;
#X connect 14 0 16 0;
#X connect 16 0 6 1;
#X connect 16 0 9 1;
#X connect 17 0 6 0;
#X connect 18 0 4 1;
#X connect 19 0 5 1;
#X connect 20 0 26 0;
#X connect 21 0 22 0;
#X connect 22 0 20 0;
#X connect 22 0 18 0;
#X connect 24 0 3 0;
#X connect 25 0 5 0;
#X connect 26 0 19 1;
#X connect 27 0 26 1;
#X connect 28 0 32 0;
#X connect 29 0 17 0;
#X connect 30 0 33 0;
#X connect 31 0 8 0;
#X connect 32 0 29 0;
#X connect 33 0 31 0;
#X restore 424 481 pd rnd_fm_osc5;
#N canvas 28 103 723 642 rnd_fm_osc6 0;
#X obj 96 55 inlet;
#X obj 296 4 inlet;
#X obj 184 344 line~;
#X obj 168 366 *~;
#X obj 170 426 *~;
#X obj 165 202 +~;
#X obj 184 321 pack 0 1700;
#X obj 162 539 *~;
#X obj 185 491 random 8;
#N canvas 100 259 450 300 am1 0;
#X obj 91 228 outlet~;
#X obj 92 194 osc~;
#X obj 99 165 line;
#X obj 99 142 pack 0 850;
#X obj 99 99 inlet;
#X obj 209 101 inlet;
#X text 101 86 freq;
#X text 213 84 clocklen/2;
#X msg 208 148 1;
#X connect 1 0 0 0;
#X connect 2 0 1 0;
#X connect 3 0 2 0;
#X connect 4 0 3 0;
#X connect 5 0 3 1;
#X connect 5 0 8 0;
#X connect 8 0 1 1;
#X restore 183 517 pd am1;
#X obj 156 49 inlet;
#X text 95 37 freq;
#X text 161 32 modfreq;
#X obj 162 566 outlet~;
#X obj 224 46 inlet;
#X text 224 32 clocklen;
#X obj 351 227 / 2;
#X obj 188 293 random 2;
#N canvas 395 83 876 445 vol_level_mod 0;
#X obj 61 307 outlet;
#X msg 65 261 \$1 400;
#X obj 65 284 line;
#X obj 67 237 clip 0.125 0.3;
#X obj 74 173 metro 300;
#X obj 73 194 random 1000;
#X obj 71 213 / 1000;
#X obj 79 144 inlet;
#X obj 170 106 r \$0rfmdroneseedb;
#X msg 171 150 seed \$1;
#X obj 171 129 + 33;
#X connect 1 0 2 0;
#X connect 2 0 0 0;
#X connect 3 0 1 0;
#X connect 4 0 5 0;
#X connect 5 0 6 0;
#X connect 6 0 3 0;
#X connect 7 0 4 0;
#X connect 8 0 10 0;
#X connect 9 0 5 0;
#X connect 10 0 9 0;
#X restore 234 390 pd vol_level_mod;
#N canvas 601 91 680 300 freqmod1 0;
#X obj 76 219 outlet~;
#X obj 70 78 osc~;
#X obj 78 187 *~;
#X obj 76 136 *~;
#X obj 219 130 noise~;
#X obj 253 3 inlet;
#X obj 133 76 inlet;
#X msg 225 54 bang;
#X obj 320 43 int;
#X obj 355 37 + 1;
#X obj 349 59 mod 2;
#X obj 76 162 +~;
#X obj 67 48 inlet;
#X text 72 32 freq;
#X text 125 59 fm depth;
#X text 254 -11 metro bang;
#X obj 280 92 tabosc4~ \$0fmnoise6b;
#X obj 274 119 table \$0fmnoise6b 259;
#X obj 191 192 tabwrite~ \$0fmnoise6b;
#X connect 1 0 3 0;
#X connect 2 0 0 0;
#X connect 3 0 11 0;
#X connect 4 0 18 0;
#X connect 5 0 7 0;
#X connect 5 0 8 0;
#X connect 6 0 3 1;
#X connect 6 0 2 1;
#X connect 7 0 18 0;
#X connect 8 0 9 0;
#X connect 9 0 10 0;
#X connect 10 0 8 1;
#X connect 10 0 16 0;
#X connect 11 0 2 0;
#X connect 12 0 1 0;
#X connect 16 0 11 1;
#X restore 185 168 pd freqmod1;
#N canvas 8 83 450 300 fmdepthmod 0;
#X obj 170 185 line;
#X obj 176 163 pack 0 10000;
#X obj 176 117 metro 10000;
#X obj 176 139 random 50;
#X obj 159 228 outlet;
#X obj 179 96 inlet;
#X obj 269 33 r \$0rfmdroneseedb;
#X msg 270 77 seed \$1;
#X obj 270 54 + 30;
#X connect 0 0 4 0;
#X connect 1 0 0 0;
#X connect 2 0 3 0;
#X connect 3 0 1 0;
#X connect 5 0 2 0;
#X connect 6 0 8 0;
#X connect 7 0 3 0;
#X connect 8 0 7 0;
#X restore 294 112 pd fmdepthmod;
#X obj 418 43 loadbang;
#X msg 403 70 bang;
#X text 286 -12 metro bang;
#X obj 167 236 osc~;
#X obj 110 132 mtof;
#X obj 239 136 *;
#X obj 366 9 inlet;
#X obj 274 186 r \$0rfmdroneseedb;
#X msg 275 230 seed \$1;
#X obj 274 415 r \$0rfmdroneseedb;
#X msg 275 459 seed \$1;
#X obj 275 207 + 32;
#X obj 277 436 + 34;
#X connect 0 0 25 0;
#X connect 1 0 8 0;
#X connect 1 0 17 0;
#X connect 1 0 19 2;
#X connect 2 0 3 1;
#X connect 3 0 4 0;
#X connect 4 0 7 0;
#X connect 5 0 24 0;
#X connect 6 0 2 0;
#X connect 7 0 13 0;
#X connect 8 0 9 0;
#X connect 9 0 7 1;
#X connect 10 0 19 0;
#X connect 14 0 16 0;
#X connect 16 0 6 1;
#X connect 16 0 9 1;
#X connect 17 0 6 0;
#X connect 18 0 4 1;
#X connect 19 0 5 1;
#X connect 20 0 26 0;
#X connect 21 0 22 0;
#X connect 22 0 20 0;
#X connect 22 0 18 0;
#X connect 24 0 3 0;
#X connect 25 0 5 0;
#X connect 26 0 19 1;
#X connect 27 0 26 1;
#X connect 28 0 32 0;
#X connect 29 0 17 0;
#X connect 30 0 33 0;
#X connect 31 0 8 0;
#X connect 32 0 29 0;
#X connect 33 0 31 0;
#X restore 525 501 pd rnd_fm_osc6;
#N canvas 26 101 723 642 rnd_fm_osc7 0;
#X obj 96 55 inlet;
#X obj 296 4 inlet;
#X obj 184 344 line~;
#X obj 168 366 *~;
#X obj 170 426 *~;
#X obj 165 202 +~;
#X obj 184 321 pack 0 1700;
#X obj 162 539 *~;
#X obj 185 491 random 8;
#N canvas 99 258 450 300 am1 0;
#X obj 91 228 outlet~;
#X obj 92 194 osc~;
#X obj 99 165 line;
#X obj 99 142 pack 0 850;
#X obj 99 99 inlet;
#X obj 209 101 inlet;
#X text 101 86 freq;
#X text 213 84 clocklen/2;
#X msg 208 148 1;
#X connect 1 0 0 0;
#X connect 2 0 1 0;
#X connect 3 0 2 0;
#X connect 4 0 3 0;
#X connect 5 0 3 1;
#X connect 5 0 8 0;
#X connect 8 0 1 1;
#X restore 183 517 pd am1;
#X obj 156 49 inlet;
#X text 95 37 freq;
#X text 161 32 modfreq;
#X obj 162 566 outlet~;
#X obj 224 46 inlet;
#X text 224 32 clocklen;
#X obj 351 227 / 2;
#X obj 188 293 random 2;
#N canvas 395 83 876 445 vol_level_mod 0;
#X obj 61 307 outlet;
#X msg 65 261 \$1 400;
#X obj 65 284 line;
#X obj 67 237 clip 0.125 0.3;
#X obj 74 173 metro 300;
#X obj 73 194 random 1000;
#X obj 71 213 / 1000;
#X obj 79 144 inlet;
#X obj 170 106 r \$0rfmdroneseedb;
#X msg 171 150 seed \$1;
#X obj 171 129 + 39;
#X connect 1 0 2 0;
#X connect 2 0 0 0;
#X connect 3 0 1 0;
#X connect 4 0 5 0;
#X connect 5 0 6 0;
#X connect 6 0 3 0;
#X connect 7 0 4 0;
#X connect 8 0 10 0;
#X connect 9 0 5 0;
#X connect 10 0 9 0;
#X restore 234 390 pd vol_level_mod;
#N canvas 600 90 680 300 freqmod1 0;
#X obj 76 219 outlet~;
#X obj 70 78 osc~;
#X obj 78 187 *~;
#X obj 76 136 *~;
#X obj 219 130 noise~;
#X obj 253 3 inlet;
#X obj 133 76 inlet;
#X msg 225 54 bang;
#X obj 320 43 int;
#X obj 355 37 + 1;
#X obj 349 59 mod 2;
#X obj 76 162 +~;
#X obj 67 48 inlet;
#X text 72 32 freq;
#X text 125 59 fm depth;
#X text 254 -11 metro bang;
#X obj 280 92 tabosc4~ \$0fmnoise7b;
#X obj 273 118 table \$0fmnoise7b 259;
#X obj 192 191 tabwrite~ \$0fmnoise7b;
#X connect 1 0 3 0;
#X connect 2 0 0 0;
#X connect 3 0 11 0;
#X connect 4 0 18 0;
#X connect 5 0 7 0;
#X connect 5 0 8 0;
#X connect 6 0 3 1;
#X connect 6 0 2 1;
#X connect 7 0 18 0;
#X connect 8 0 9 0;
#X connect 9 0 10 0;
#X connect 10 0 8 1;
#X connect 10 0 16 0;
#X connect 11 0 2 0;
#X connect 12 0 1 0;
#X connect 16 0 11 1;
#X restore 185 168 pd freqmod1;
#N canvas 8 83 450 300 fmdepthmod 0;
#X obj 170 185 line;
#X obj 176 163 pack 0 10000;
#X obj 176 117 metro 10000;
#X obj 176 139 random 50;
#X obj 159 228 outlet;
#X obj 179 96 inlet;
#X obj 269 33 r \$0rfmdroneseedb;
#X msg 270 77 seed \$1;
#X obj 270 54 + 36;
#X connect 0 0 4 0;
#X connect 1 0 0 0;
#X connect 2 0 3 0;
#X connect 3 0 1 0;
#X connect 5 0 2 0;
#X connect 6 0 8 0;
#X connect 7 0 3 0;
#X connect 8 0 7 0;
#X restore 294 112 pd fmdepthmod;
#X obj 418 43 loadbang;
#X msg 403 70 bang;
#X text 286 -12 metro bang;
#X obj 167 236 osc~;
#X obj 110 132 mtof;
#X obj 239 136 *;
#X obj 366 9 inlet;
#X obj 274 186 r \$0rfmdroneseedb;
#X msg 275 230 seed \$1;
#X obj 274 415 r \$0rfmdroneseedb;
#X msg 275 459 seed \$1;
#X obj 275 207 + 38;
#X obj 277 436 + 40;
#X connect 0 0 25 0;
#X connect 1 0 8 0;
#X connect 1 0 17 0;
#X connect 1 0 19 2;
#X connect 2 0 3 1;
#X connect 3 0 4 0;
#X connect 4 0 7 0;
#X connect 5 0 24 0;
#X connect 6 0 2 0;
#X connect 7 0 13 0;
#X connect 8 0 9 0;
#X connect 9 0 7 1;
#X connect 10 0 19 0;
#X connect 14 0 16 0;
#X connect 16 0 6 1;
#X connect 16 0 9 1;
#X connect 17 0 6 0;
#X connect 18 0 4 1;
#X connect 19 0 5 1;
#X connect 20 0 26 0;
#X connect 21 0 22 0;
#X connect 22 0 20 0;
#X connect 22 0 18 0;
#X connect 24 0 3 0;
#X connect 25 0 5 0;
#X connect 26 0 19 1;
#X connect 27 0 26 1;
#X connect 28 0 32 0;
#X connect 29 0 17 0;
#X connect 30 0 33 0;
#X connect 31 0 8 0;
#X connect 32 0 29 0;
#X connect 33 0 31 0;
#X restore 640 505 pd rnd_fm_osc7;
#X obj 321 56 inlet;
#X text 361 56 bang to change;
#X obj 343 123 tgl 15 1 empty empty ext 17 7 0 10 -262144 -1 -1 0 1
;
#X obj -57 228 t b;
#X obj -56 182 metro;
#X obj 409 90 == 0;
#X obj 258 42 != 0;
#X obj -62 206 spigot;
#X obj 283 77 spigot;
#X obj 184 124 nbx 3 14 0.1 10 0 1 empty empty fmd -19 8 0 10 -262144
-1 -1 1.04 256;
#X obj 525 70 s \$0rfmdroneseedb;
#X obj 497 49 t b f;
#X obj 305 106 nbx 7 14 1 1e+037 0 1 empty empty seed -27 8 0 10 -262144
-1 -1 731796 256;
#X obj 196 25 inlet;
#X text 202 8 reset;
#X obj 196 48 t b;
#X text 469 118 ardots binary synth patch. added pitch control \, random
seed \, pan and some other stuff.;
#X text 470 150 9/2011 martin brinkmann;
#X connect 0 0 10 1;
#X connect 1 0 9 0;
#X connect 2 0 8 0;
#X connect 3 0 7 0;
#X connect 4 0 52 0;
#X connect 5 0 53 0;
#X connect 6 0 54 0;
#X connect 7 0 6 0;
#X connect 7 1 6 1;
#X connect 8 0 5 0;
#X connect 8 1 5 1;
#X connect 9 0 4 0;
#X connect 9 1 4 1;
#X connect 10 0 50 0;
#X connect 10 1 51 0;
#X connect 11 0 50 0;
#X connect 11 1 51 0;
#X connect 12 0 50 0;
#X connect 12 1 51 0;
#X connect 13 0 50 0;
#X connect 13 1 51 0;
#X connect 14 0 0 2;
#X connect 14 0 46 0;
#X connect 14 0 52 2;
#X connect 14 0 53 2;
#X connect 14 0 54 2;
#X connect 14 0 55 2;
#X connect 14 0 56 2;
#X connect 14 0 57 2;
#X connect 17 0 19 0;
#X connect 18 0 55 0;
#X connect 19 0 18 0;
#X connect 19 1 18 1;
#X connect 20 0 50 0;
#X connect 20 1 51 0;
#X connect 21 0 24 0;
#X connect 22 0 4 0;
#X connect 22 0 5 0;
#X connect 22 0 6 0;
#X connect 22 0 18 0;
#X connect 22 0 39 0;
#X connect 22 0 42 0;
#X connect 22 0 0 0;
#X connect 23 0 22 0;
#X connect 24 0 22 0;
#X connect 24 0 28 0;
#X connect 24 1 22 1;
#X connect 24 1 28 1;
#X connect 26 0 0 1;
#X connect 26 0 52 1;
#X connect 26 0 53 1;
#X connect 26 0 54 1;
#X connect 26 0 55 1;
#X connect 27 0 28 0;
#X connect 27 0 56 1;
#X connect 27 0 57 1;
#X connect 28 0 26 0;
#X connect 29 0 70 0;
#X connect 30 0 62 0;
#X connect 31 0 10 0;
#X connect 32 0 11 0;
#X connect 33 0 12 0;
#X connect 34 0 13 0;
#X connect 35 0 20 0;
#X connect 36 0 44 0;
#X connect 37 0 45 0;
#X connect 38 0 40 0;
#X connect 39 0 56 0;
#X connect 40 0 39 0;
#X connect 40 1 39 1;
#X connect 41 0 43 0;
#X connect 42 0 57 0;
#X connect 43 0 42 0;
#X connect 43 1 42 1;
#X connect 44 0 50 0;
#X connect 44 1 51 0;
#X connect 45 0 50 0;
#X connect 45 1 51 0;
#X connect 46 0 62 0;
#X connect 46 1 62 1;
#X connect 47 0 48 0;
#X connect 48 0 49 0;
#X connect 48 1 49 1;
#X connect 49 0 50 1;
#X connect 49 0 51 1;
#X connect 50 0 15 0;
#X connect 51 0 16 0;
#X connect 52 0 11 1;
#X connect 53 0 12 1;
#X connect 54 0 13 1;
#X connect 55 0 20 1;
#X connect 56 0 44 1;
#X connect 57 0 45 1;
#X connect 58 0 66 0;
#X connect 60 0 63 0;
#X connect 60 0 64 0;
#X connect 61 0 0 3;
#X connect 61 0 52 3;
#X connect 61 0 53 3;
#X connect 61 0 54 3;
#X connect 61 0 55 3;
#X connect 61 0 56 3;
#X connect 61 0 57 3;
#X connect 62 0 65 0;
#X connect 63 0 65 1;
#X connect 64 0 66 1;
#X connect 65 0 61 0;
#X connect 66 0 61 0;
#X connect 67 0 0 4;
#X connect 67 0 52 4;
#X connect 67 0 53 4;
#X connect 67 0 54 4;
#X connect 67 0 55 4;
#X connect 67 0 56 4;
#X connect 67 0 57 4;
#X connect 69 0 30 0;
#X connect 69 0 14 0;
#X connect 69 1 68 0;
#X connect 70 0 69 0;
#X connect 71 0 73 0;
#X connect 73 0 70 0;
#X coords 0 -1 1 1 294 75 1 100 100;
#X restore 743 116 pd rand_fm_droneb;
#X obj 382 207 *~ 0.5;
#X obj 578 213 *~ 0.5;
#X obj 98 -32 loadbang;
#X msg 103 46 \; pd dsp 1;
#X text 682 -90;
#X text 519 -85;
#X text 520 31;
#X text 382 -89;
#X text 932 -26;
#X connect 0 0 1 0;
#X connect 1 0 3 0;
#X connect 2 0 1 0;
#X connect 4 0 10 0;
#X connect 5 0 4 3;
#X connect 5 0 9 0;
#X connect 6 0 4 2;
#X connect 6 0 9 0;
#X connect 7 0 4 1;
#X connect 7 0 9 0;
#X connect 8 0 4 0;
#X connect 9 0 4 0;
#X connect 10 0 1 0;
#X connect 11 0 16 0;
#X connect 16 0 12 0;
#X connect 16 1 13 0;
#X connect 16 2 14 0;
#X connect 16 3 15 0;
#X connect 16 4 17 0;
#X connect 16 5 18 0;
#X connect 16 6 19 0;
#X connect 16 7 20 0;
#X connect 16 8 21 0;
#X connect 16 9 22 0;
#X connect 16 10 23 0;
#X connect 16 11 24 0;
#X connect 16 12 25 0;
#X connect 16 13 26 0;
#X connect 27 0 35 0;
#X connect 27 1 36 0;
#X connect 28 0 27 2;
#X connect 29 0 27 0;
#X connect 29 0 34 0;
#X connect 30 0 27 1;
#X connect 32 0 34 2;
#X connect 33 0 34 1;
#X connect 34 0 35 0;
#X connect 34 1 36 0;
#X connect 35 0 31 0;
#X connect 36 0 31 1;
#X connect 37 0 38 0;
